<svg width="16" height="16" viewBox="0 0 16 16" fill="none" xmlns="http://www.w3.org/2000/svg">
<path d="M15.5547 10.6318C15.8428 9.80721 16 8.92167 16 7.99996C16 7.07825 15.8428 6.19271 15.5547 5.36809C15.5478 5.3435 15.5393 5.31939 15.5293 5.29592C14.4181 2.21146 11.4627 0 8.0001 0C4.5375 0 1.58201 2.21146 0.47093 5.29592C0.460838 5.31924 0.452429 5.34332 0.445471 5.36809C0.157399 6.19271 0.000213623 7.07825 0.000213623 7.99996C0.000213623 8.92167 0.157399 9.80721 0.445471 10.6318C0.452505 10.6566 0.460838 10.6808 0.47093 10.704C1.58209 13.7885 4.5375 15.9999 8.0001 15.9999C11.4627 15.9999 14.4181 13.7885 15.5293 10.704C15.5394 10.6805 15.5479 10.6564 15.5547 10.6318ZM8.0001 14.8532C7.69544 14.8532 7.20423 14.3018 6.79368 13.07C6.59552 12.4756 6.43688 11.7923 6.32128 11.049H9.67891C9.56332 11.7923 9.40468 12.4756 9.20659 13.07C8.79597 14.3018 8.30476 14.8532 8.0001 14.8532ZM6.18214 9.90217C6.12702 9.2907 6.09789 8.65279 6.09789 7.99996C6.09789 7.34714 6.12702 6.70922 6.18214 6.09775H9.81798C9.8731 6.70922 9.90223 7.34714 9.90223 7.99996C9.90223 8.65279 9.8731 9.2907 9.81798 9.90217H6.18214ZM1.14692 8.00004C1.14692 7.34025 1.24088 6.70203 1.41573 6.09783H5.03192C4.97832 6.72191 4.95111 7.36151 4.95111 8.00004C4.95111 8.63857 4.97825 9.27817 5.03192 9.90225H1.41573C1.237 9.284 1.14651 8.6436 1.14692 8.00004ZM8.0001 1.14678C8.30476 1.14678 8.79604 1.69816 9.20659 2.92996C9.40468 3.52437 9.56339 4.2077 9.67891 4.95097H6.32121C6.4368 4.20762 6.59544 3.52437 6.79361 2.92996C7.20423 1.69816 7.69544 1.14678 8.0001 1.14678ZM10.9682 6.09783H14.5844C14.7592 6.70203 14.8532 7.34025 14.8532 8.00004C14.8532 8.65982 14.7592 9.29804 14.5844 9.90225H10.9682C11.0218 9.27817 11.049 8.63857 11.049 8.00004C11.049 7.36151 11.0218 6.72191 10.9682 6.09783ZM14.1363 4.95105H10.8366C10.6327 3.54455 10.2827 2.28271 9.79183 1.38501C11.6951 1.90098 13.2719 3.21833 14.1363 4.95105ZM6.20829 1.38493C5.71739 2.28263 5.36747 3.54448 5.16349 4.95105H1.86381C2.72826 3.21833 4.30501 1.90098 6.20829 1.38493ZM1.86381 11.049H5.16349C5.36747 12.4554 5.71739 13.7173 6.20829 14.6151C4.30501 14.099 2.72826 12.7817 1.86381 11.049ZM9.79183 14.6151C10.2827 13.7174 10.6327 12.4555 10.8366 11.049H14.1363C13.2719 12.7817 11.6951 14.099 9.79183 14.6151Z" fill="#BDBDBD"/>
</svg>
