<svg width="16" height="16" viewBox="0 0 16 16" fill="none" xmlns="http://www.w3.org/2000/svg">
<g id="bed (1) 1">
<g id="Group">
<g id="Group_2">
<path id="Vector" d="M14.5155 7.2629V3.69983C14.5155 2.9143 13.8764 2.27521 13.0909 2.27521H2.90913C2.12359 2.27521 1.4845 2.9143 1.4845 3.69983V7.2629C0.629625 7.49955 0 8.28393 0 9.21305V11.9203C0 12.1826 0.212687 12.3953 0.475 12.3953H1.4845V13.2498C1.4845 13.5121 1.69719 13.7248 1.9595 13.7248C2.22181 13.7248 2.4345 13.5121 2.4345 13.2498V12.3953H13.5655V13.2498C13.5655 13.5121 13.7782 13.7248 14.0405 13.7248C14.3028 13.7248 14.5155 13.5121 14.5155 13.2498V12.3953H15.525C15.7873 12.3953 16 12.1826 16 11.9203V9.21305C16 8.28393 15.3703 7.49955 14.5155 7.2629ZM2.4345 3.69983C2.4345 3.43814 2.64744 3.22521 2.90913 3.22521H13.0909C13.3526 3.22521 13.5655 3.43814 13.5655 3.69983V7.18939H12.4526V6.23593C12.4526 5.40683 11.7781 4.73233 10.949 4.73233H9.02862C8.631 4.73233 8.26919 4.88774 8.00003 5.14071C7.73088 4.88777 7.36906 4.73233 6.97144 4.73233H5.05109C4.222 4.73233 3.5475 5.40686 3.5475 6.23593V7.18939H2.4345V3.69983ZM11.5026 6.23593V7.18939H8.475V6.23593C8.475 5.93064 8.72338 5.68233 9.02859 5.68233H10.9489C11.2542 5.68233 11.5026 5.93068 11.5026 6.23593ZM7.52497 6.23593V7.18939H4.49741V6.23593C4.49741 5.93064 4.74578 5.68233 5.051 5.68233H6.97134C7.27662 5.68233 7.52497 5.93068 7.52497 6.23593ZM15.05 11.4453H0.95V9.21305C0.95 8.62105 1.43163 8.13939 2.02366 8.13939H13.9763C14.5683 8.13939 15.05 8.62102 15.05 9.21305V11.4453Z" fill="#474F5A"/>
</g>
</g>
</g>
</svg>
