<svg width="12" height="12" viewBox="0 0 12 12" fill="none" xmlns="http://www.w3.org/2000/svg">
<g id="edit-text 1" clip-path="url(#clip0_118_1182)">
<path id="Vector" d="M2.38 9.40505C2.38 9.40505 2.42 9.40505 2.435 9.40505L3.9 9.27005C4.105 9.25005 4.295 9.16005 4.44 9.01505L9.97 3.48505C10.23 3.22505 10.375 2.88005 10.375 2.51505C10.375 2.15005 10.23 1.80505 9.97 1.54505L9.615 1.19005C9.095 0.670049 8.19 0.670049 7.67 1.19005L6.965 1.89505L2.145 6.71505C2 6.86005 1.91 7.05005 1.895 7.25505L1.76 8.72005C1.745 8.90505 1.81 9.08505 1.94 9.22005C2.06 9.34005 2.215 9.40505 2.38 9.40505ZM8.645 1.53505C8.805 1.53505 8.965 1.59505 9.085 1.72005L9.44 2.07505C9.56 2.19505 9.625 2.35005 9.625 2.51505C9.625 2.68005 9.56 2.84005 9.44 2.95505L9 3.39505L7.765 2.16005L8.205 1.72005C8.325 1.60005 8.485 1.53505 8.645 1.53505ZM2.64 7.32505C2.64 7.29505 2.655 7.27005 2.675 7.25005L7.23 2.69005L8.465 3.92505L3.91 8.48005C3.91 8.48005 3.86 8.51505 3.835 8.51505L2.52 8.63505L2.64 7.32005V7.32505ZM11.375 11C11.375 11.205 11.205 11.375 11 11.375H1C0.795 11.375 0.625 11.205 0.625 11C0.625 10.795 0.795 10.625 1 10.625H11C11.205 10.625 11.375 10.795 11.375 11Z" fill="#FDFDFD"/>
</g>
<defs>
<clipPath id="clip0_118_1182">
<rect width="12" height="12" fill="white"/>
</clipPath>
</defs>
</svg>
