<svg width="24" height="24" viewBox="0 0 24 24" fill="none" xmlns="http://www.w3.org/2000/svg">
<path d="M4.61538 7.4C4.27552 7.4 4 7.66863 4 8C4 8.33137 4.27552 8.6 4.61538 8.6V7.4ZM4.61538 15.4C4.27552 15.4 4 15.6686 4 16C4 16.3314 4.27552 16.6 4.61538 16.6V15.4ZM9.53846 16.6C9.87833 16.6 10.1538 16.3314 10.1538 16C10.1538 15.6686 9.87833 15.4 9.53846 15.4V16.6ZM19.3846 16.6C19.7245 16.6 20 16.3314 20 16C20 15.6686 19.7245 15.4 19.3846 15.4V16.6ZM14.4615 7.4C14.1217 7.4 13.8462 7.66863 13.8462 8C13.8462 8.33137 14.1217 8.6 14.4615 8.6V7.4ZM19.3846 8.6C19.7245 8.6 20 8.33137 20 8C20 7.66863 19.7245 7.4 19.3846 7.4V8.6ZM4.61538 8.6H7.07692V7.4H4.61538V8.6ZM4.61538 16.6H9.53846V15.4H4.61538V16.6ZM16.9231 16.6H19.3846V15.4H16.9231V16.6ZM14.4615 8.6H19.3846V7.4H14.4615V8.6ZM16.3077 16C16.3077 16.9941 15.4811 17.8 14.4615 17.8V19C16.1609 19 17.5385 17.6569 17.5385 16H16.3077ZM14.4615 17.8C13.442 17.8 12.6154 16.9941 12.6154 16H11.3846C11.3846 17.6569 12.7622 19 14.4615 19V17.8ZM12.6154 16C12.6154 15.0059 13.442 14.2 14.4615 14.2V13C12.7622 13 11.3846 14.3431 11.3846 16H12.6154ZM14.4615 14.2C15.4811 14.2 16.3077 15.0059 16.3077 16H17.5385C17.5385 14.3431 16.1609 13 14.4615 13V14.2ZM11.3846 8C11.3846 8.99411 10.558 9.8 9.53846 9.8V11C11.2378 11 12.6154 9.65686 12.6154 8H11.3846ZM9.53846 9.8C8.51886 9.8 7.69231 8.99411 7.69231 8H6.46154C6.46154 9.65686 7.83912 11 9.53846 11V9.8ZM7.69231 8C7.69231 7.00589 8.51886 6.2 9.53846 6.2V5C7.83912 5 6.46154 6.34314 6.46154 8H7.69231ZM9.53846 6.2C10.558 6.2 11.3846 7.00589 11.3846 8H12.6154C12.6154 6.34314 11.2378 5 9.53846 5V6.2Z" fill="#28303F"/>
</svg>
