<svg width="217" height="176" viewBox="0 0 217 176" fill="none" xmlns="http://www.w3.org/2000/svg">
<g clip-path="url(#clip0_23_230)">
<path d="M161.906 124.494L160.165 123.365C159.863 123.169 159.603 122.915 159.399 122.619C159.195 122.322 159.052 121.988 158.977 121.636C158.902 121.284 158.897 120.921 158.963 120.567C159.029 120.213 159.163 119.876 159.36 119.574C159.392 119.525 159.424 119.478 159.458 119.432C159.714 119.089 160.046 118.81 160.429 118.618C160.811 118.426 161.234 118.326 161.662 118.326C162.043 118.326 162.419 118.406 162.767 118.56C162.901 118.619 163.03 118.688 163.153 118.769L165.278 120.149L168.905 122.501V115.651C168.905 114.925 169.193 114.228 169.708 113.714C170.222 113.2 170.919 112.911 171.647 112.911C172.374 112.911 173.072 113.2 173.586 113.714C174.1 114.228 174.389 114.925 174.389 115.651V122.505L176.766 120.964L180.141 118.769C180.443 118.568 180.781 118.43 181.137 118.361C181.493 118.292 181.859 118.294 182.214 118.367C182.569 118.441 182.906 118.584 183.206 118.788C183.505 118.993 183.761 119.254 183.958 119.558C184.156 119.862 184.291 120.202 184.356 120.558C184.421 120.915 184.415 121.281 184.338 121.635C184.261 121.989 184.114 122.324 183.906 122.621C183.699 122.918 183.434 123.171 183.128 123.365L182.361 123.862L180.036 125.372L176.682 127.548L178.703 128.863L181.178 130.47L183.128 131.735C183.624 132.057 184.003 132.531 184.207 133.086C184.412 133.641 184.431 134.246 184.263 134.813C184.095 135.38 183.747 135.877 183.273 136.23C182.799 136.584 182.223 136.774 181.631 136.774C181.477 136.774 181.323 136.761 181.172 136.734C180.804 136.672 180.453 136.535 180.141 136.331L174.389 132.599V139.452C174.389 139.812 174.318 140.168 174.18 140.501C174.042 140.833 173.84 141.135 173.586 141.39C173.331 141.644 173.029 141.846 172.696 141.984C172.363 142.122 172.007 142.193 171.647 142.193C171.287 142.193 170.93 142.122 170.597 141.984C170.265 141.846 169.962 141.644 169.708 141.39C169.453 141.135 169.251 140.833 169.113 140.501C168.975 140.168 168.905 139.812 168.905 139.452V132.599L163.153 136.331C162.851 136.532 162.512 136.671 162.156 136.739C161.8 136.808 161.434 136.806 161.079 136.733C160.724 136.659 160.387 136.516 160.088 136.312C159.788 136.107 159.533 135.846 159.335 135.542C159.138 135.238 159.002 134.898 158.937 134.542C158.872 134.185 158.878 133.819 158.955 133.465C159.033 133.111 159.179 132.776 159.387 132.479C159.595 132.182 159.859 131.93 160.165 131.735L161.304 130.993L166.612 127.549L164.718 126.32L161.906 124.494Z" fill="#DDE3EB"/>
<path d="M120.098 119.574C120.294 119.272 120.547 119.012 120.844 118.808C121.141 118.604 121.475 118.461 121.827 118.386C122.179 118.311 122.543 118.307 122.897 118.372C123.251 118.438 123.589 118.573 123.891 118.769L125.864 120.05L129.642 122.499V115.651C129.642 115.292 129.713 114.935 129.851 114.603C129.989 114.27 130.191 113.968 130.446 113.714C130.7 113.459 131.003 113.257 131.335 113.12C131.668 112.982 132.025 112.911 132.385 112.911C132.745 112.911 133.101 112.982 133.434 113.12C133.766 113.258 134.068 113.46 134.322 113.714C134.577 113.969 134.778 114.271 134.916 114.603C135.053 114.936 135.124 115.292 135.123 115.651V122.505L138.763 120.145L140.879 118.769C141.322 118.48 141.84 118.325 142.369 118.323C142.961 118.323 143.537 118.514 144.011 118.867C144.485 119.221 144.832 119.718 145 120.284C145.168 120.851 145.149 121.457 144.944 122.011C144.74 122.566 144.361 123.04 143.865 123.362L143.856 123.368L137.419 127.545L139.14 128.658L143.865 131.725C144.343 132.035 144.713 132.486 144.922 133.016C145.132 133.546 145.171 134.127 145.034 134.68C144.898 135.233 144.592 135.73 144.16 136.101C143.728 136.472 143.19 136.699 142.623 136.751C142.539 136.76 142.454 136.763 142.369 136.763C141.84 136.763 141.322 136.608 140.879 136.318L139.963 135.724L135.127 132.586V139.44C135.127 139.8 135.056 140.156 134.918 140.488C134.781 140.821 134.579 141.123 134.324 141.378C134.069 141.632 133.767 141.834 133.434 141.972C133.101 142.109 132.745 142.18 132.385 142.18C132.025 142.18 131.668 142.109 131.335 141.972C131.002 141.834 130.7 141.632 130.445 141.378C130.191 141.123 129.989 140.821 129.851 140.489C129.713 140.156 129.642 139.8 129.642 139.44V132.586L124.419 135.976L123.891 136.319C123.291 136.708 122.563 136.848 121.862 136.708C121.16 136.569 120.541 136.161 120.137 135.571C120.123 135.552 120.11 135.533 120.098 135.513C119.901 135.212 119.766 134.874 119.701 134.52C119.635 134.167 119.64 133.803 119.715 133.451C119.789 133.099 119.933 132.765 120.137 132.469C120.341 132.172 120.601 131.919 120.903 131.723L127.35 127.539L120.903 123.356C120.296 122.96 119.87 122.34 119.719 121.631C119.568 120.922 119.704 120.183 120.098 119.574Z" fill="#DDE3EB"/>
<path d="M81.6413 123.365C81.333 123.172 81.0663 122.919 80.8566 122.622C80.6469 122.325 80.4985 121.989 80.42 121.634C80.3415 121.279 80.3344 120.912 80.3993 120.554C80.4641 120.196 80.5996 119.855 80.7977 119.55C80.9959 119.245 81.2528 118.983 81.5534 118.778C81.8541 118.573 82.1925 118.431 82.549 118.358C82.9055 118.285 83.2729 118.284 83.6298 118.355C83.9867 118.425 84.326 118.566 84.6279 118.769L90.3797 122.501V115.651C90.3797 114.925 90.6686 114.228 91.1829 113.714C91.6971 113.2 92.3946 112.911 93.1219 112.911C93.8492 112.911 94.5467 113.2 95.0609 113.714C95.5752 114.228 95.8641 114.925 95.8641 115.651V122.505L101.616 118.769C101.718 118.702 101.825 118.643 101.935 118.591C102.301 118.416 102.702 118.326 103.107 118.326C103.699 118.326 104.275 118.517 104.749 118.87C105.223 119.223 105.57 119.721 105.738 120.287C105.906 120.854 105.887 121.46 105.682 122.014C105.478 122.569 105.099 123.043 104.603 123.365L99.7412 126.52L98.1569 127.548L103.47 130.996L104.603 131.732C105.202 132.124 105.624 132.736 105.777 133.435C105.931 134.134 105.805 134.865 105.426 135.473C105.047 136.08 104.445 136.515 103.749 136.685C103.053 136.855 102.318 136.746 101.702 136.381C101.673 136.364 101.645 136.346 101.616 136.328L99.1834 134.749L95.8641 132.596V139.45C95.8641 140.177 95.5752 140.874 95.0609 141.388C94.5467 141.902 93.8492 142.19 93.1219 142.19C92.3946 142.19 91.6971 141.902 91.1829 141.388C90.6686 140.874 90.3797 140.177 90.3797 139.45V132.596L84.9852 136.097L84.6279 136.329C84.0178 136.724 83.2758 136.861 82.5646 136.71C81.8534 136.559 81.2313 136.133 80.8347 135.524C80.7902 135.455 80.7486 135.385 80.7114 135.314C80.3908 134.709 80.3085 134.006 80.4806 133.343C80.6527 132.68 81.0668 132.106 81.6413 131.733L81.7527 131.659L88.0876 127.548L83.4752 124.554L81.6413 123.365Z" fill="#DDE3EB"/>
<path d="M51.1192 139.449V132.595L46.8944 135.337L45.3674 136.328C44.9239 136.617 44.4062 136.771 43.8767 136.773C43.2851 136.773 42.7092 136.583 42.235 136.23C41.7607 135.876 41.4135 135.379 41.2452 134.812C41.0768 134.246 41.0964 133.64 41.3009 133.085C41.5054 132.53 41.884 132.057 42.3801 131.735L43.2461 131.164L46.1777 129.261L48.8211 127.546L42.3749 123.362C42.0687 123.168 41.8042 122.915 41.5965 122.618C41.3888 122.321 41.2421 121.986 41.1649 121.632C41.0877 121.278 41.0815 120.913 41.1466 120.556C41.2118 120.2 41.347 119.86 41.5445 119.556C41.742 119.252 41.9978 118.99 42.2972 118.786C42.5965 118.582 42.9335 118.439 43.2885 118.365C43.6435 118.292 44.0096 118.29 44.3656 118.358C44.7215 118.427 45.0602 118.566 45.3622 118.767L51.1192 122.501V115.651C51.1192 114.925 51.4081 114.228 51.9223 113.714C52.4366 113.2 53.1341 112.911 53.8613 112.911C54.5886 112.911 55.2861 113.2 55.8004 113.714C56.3146 114.228 56.6036 114.925 56.6036 115.651V122.505L62.3539 118.769C62.7969 118.479 63.3149 118.324 63.8445 118.323C64.4361 118.323 65.012 118.513 65.4862 118.867C65.9605 119.22 66.3077 119.717 66.476 120.284C66.6444 120.851 66.6248 121.457 66.4203 122.011C66.2158 122.566 65.8372 123.04 65.3412 123.362L62.9882 124.889L60.601 126.437L58.8927 127.545L61.6735 129.35L64.0428 130.887L65.3389 131.729C65.645 131.923 65.9096 132.176 66.1173 132.473C66.325 132.77 66.4717 133.105 66.5489 133.459C66.6261 133.813 66.6323 134.179 66.5672 134.535C66.502 134.891 66.3668 135.231 66.1693 135.535C65.9718 135.839 65.716 136.101 65.4166 136.305C65.1173 136.509 64.7803 136.652 64.4253 136.726C64.0702 136.799 63.7042 136.802 63.3482 136.733C62.9923 136.664 62.6536 136.525 62.3516 136.325L59.0241 134.165L56.5998 132.592V139.446C56.5998 140.172 56.3109 140.869 55.7967 141.383C55.2824 141.897 54.5849 142.186 53.8576 142.186C53.1304 142.186 52.4329 141.897 51.9186 141.383C51.4044 140.869 51.1154 140.172 51.1154 139.446L51.1192 139.449Z" fill="#DDE3EB"/>
<path d="M117.773 82.2366C117.698 82.1958 117.628 82.1557 117.555 82.1164C117.441 82.0555 117.326 81.9962 117.21 81.9398C117.166 81.9175 117.121 81.8967 117.078 81.8759L117.052 81.8641L116.919 81.8032L116.786 81.7446C116.753 81.7297 116.72 81.7156 116.687 81.7022L116.613 81.6703L116.475 81.6154L116.333 81.5605C116.177 81.5016 116.019 81.4467 115.859 81.3957C115.81 81.3794 115.76 81.3638 115.71 81.3497C115.606 81.3178 115.502 81.2881 115.397 81.2599C115.331 81.2421 115.265 81.225 115.198 81.2087L115.1 81.1849L115.03 81.1686L114.807 81.1196H114.788L114.719 81.1062C114.679 81.0981 114.638 81.0899 114.598 81.0832C114.499 81.0649 114.397 81.0479 114.292 81.032L114.207 81.0194C114.151 81.0112 114.095 81.0038 114.039 80.9971C113.958 80.9867 113.876 80.9771 113.795 80.9689L113.742 80.9637L113.607 80.9519L113.449 80.94H113.406L113.27 80.9326L113.101 80.9259C113.044 80.9259 112.988 80.9259 112.931 80.9214H112.76C110.095 80.9215 107.536 81.9693 105.637 83.8386C103.738 85.7078 102.651 88.2484 102.611 90.9117H67.9779V68.7928C67.976 67.3319 68.3187 65.8911 68.9784 64.5874C69.7574 63.0467 70.9489 61.7523 72.4203 60.8482C73.8917 59.944 75.5853 59.4655 77.3127 59.466H85.6863V38.7699C85.6795 33.3319 87.3167 28.0185 90.3834 23.5262C92.6417 20.2127 95.6099 17.4432 99.0725 15.4188C102.535 13.3943 106.406 12.1657 110.403 11.8221C111.18 11.7563 111.963 11.7231 112.751 11.7226C116.307 11.7185 119.828 12.4154 123.114 13.7732C126.4 15.131 129.385 17.1232 131.899 19.6357C134.414 22.1481 136.407 25.1315 137.766 28.415C139.125 31.6985 139.822 35.2175 139.818 38.7707V59.4653H148.201C150.458 59.4652 152.638 60.2822 154.339 61.7651C156.039 63.248 157.145 65.2964 157.45 67.531C157.506 67.9492 157.535 68.3708 157.535 68.7928V90.9013H122.901C122.876 89.1358 122.389 87.4077 121.489 85.888C120.59 84.3682 119.309 83.1096 117.773 82.2366ZM131.698 38.7699C131.7 36.2469 131.195 33.7492 130.214 31.4244C129.233 29.0996 127.796 26.9949 125.987 25.2348C122.454 21.7732 117.702 19.8356 112.754 19.8388C112.396 19.8388 112.039 19.849 111.684 19.8693C101.731 20.4259 93.8105 28.6906 93.8105 38.7707V59.4653H131.698V38.7699Z" fill="#DDE3EB"/>
<path d="M25.4025 109.593C30.3618 101.697 38.4874 95.9804 47.9878 94.2354C50.0148 93.8632 52.0715 93.6764 54.1325 93.6772H171.373C190.064 93.6772 205.269 108.871 205.269 127.549C205.276 132.75 204.076 137.881 201.764 142.541C199.471 147.158 196.16 151.195 192.08 154.348C186.156 158.94 178.87 161.428 171.373 161.42H54.1332C46.1605 161.428 38.4426 158.614 32.3479 153.478C28.9744 150.646 26.1822 147.187 24.1257 143.293C21.3703 138.055 20.0381 132.187 20.2621 126.274C20.4862 120.361 22.2586 114.61 25.4025 109.596V109.593ZM117.118 154.729H171.373C177.171 154.735 182.817 152.88 187.48 149.438C194.203 144.485 198.573 136.518 198.573 127.549C198.573 112.561 186.37 100.368 171.372 100.368H54.1332C39.135 100.368 26.9325 112.561 26.9325 127.549C26.9325 128.352 26.9672 129.147 27.0365 129.934C27.3261 133.268 28.2352 136.52 29.7171 139.521C34.1542 148.521 43.4318 154.727 54.1325 154.727L117.118 154.729Z" fill="#DDE3EB"/>
<path d="M155.936 142.97C154.756 142.864 153.642 142.38 152.761 141.589C151.88 140.799 151.278 139.745 151.045 138.584C150.812 137.424 150.961 136.219 151.47 135.151C151.978 134.082 152.819 133.206 153.866 132.654L156.922 131.043L154.206 128.909C153.633 128.466 153.153 127.914 152.793 127.285C152.434 126.655 152.204 125.961 152.114 125.242C152.025 124.523 152.08 123.794 152.274 123.096C152.468 122.398 152.799 121.745 153.247 121.176C153.695 120.607 154.252 120.131 154.885 119.778C155.518 119.425 156.214 119.2 156.934 119.117C157.655 119.034 158.384 119.094 159.081 119.295C159.777 119.495 160.428 119.831 160.994 120.284L162.405 121.397L162.567 119.609C162.598 119.255 162.665 118.905 162.765 118.564C163.123 117.344 163.894 116.286 164.945 115.571C165.996 114.855 167.263 114.526 168.53 114.64C168.712 114.656 168.891 114.681 169.067 114.714C170.405 114.971 171.599 115.716 172.419 116.803C173.238 117.89 173.625 119.243 173.503 120.598L173.34 122.387L174.387 121.835L174.93 121.549C175.567 121.213 176.265 121.005 176.983 120.938C177.701 120.871 178.425 120.947 179.114 121.159C179.803 121.372 180.443 121.719 180.998 122.179C181.552 122.639 182.011 123.204 182.347 123.841C182.352 123.849 182.356 123.857 182.359 123.865C182.921 124.942 183.109 126.174 182.895 127.369C182.681 128.564 182.077 129.655 181.177 130.471L178.701 128.864L178.776 128.827C179.376 128.51 179.838 127.981 180.071 127.344C180.304 126.707 180.293 126.005 180.038 125.376C180.004 125.29 179.964 125.206 179.921 125.124C179.581 124.481 179 123.999 178.306 123.785C177.611 123.57 176.859 123.64 176.216 123.979L170.15 127.177L170.77 120.349C170.802 119.991 170.764 119.629 170.656 119.286C170.549 118.942 170.375 118.623 170.145 118.347C169.679 117.789 169.01 117.438 168.286 117.373C167.562 117.307 166.841 117.532 166.282 117.997C165.724 118.463 165.373 119.131 165.307 119.855L165.281 120.152L164.721 126.322L164.688 126.682L161.909 124.497L159.297 122.445L159.283 122.434C158.709 121.995 157.985 121.801 157.269 121.892C156.552 121.984 155.901 122.355 155.456 122.924C155.011 123.493 154.809 124.214 154.894 124.931C154.978 125.648 155.343 126.303 155.907 126.753L161.306 130.995L160.168 131.738C159.701 132.04 159.338 132.478 159.128 132.993L155.153 135.089C154.831 135.254 154.544 135.482 154.31 135.759C154.075 136.036 153.899 136.357 153.789 136.702C153.68 137.048 153.641 137.412 153.673 137.773C153.706 138.134 153.81 138.485 153.979 138.806C154.149 139.127 154.38 139.411 154.66 139.641C154.94 139.872 155.263 140.045 155.61 140.15C155.957 140.255 156.322 140.29 156.683 140.253C157.044 140.217 157.394 140.108 157.713 139.935L163.774 136.731L163.155 143.559C163.123 143.917 163.161 144.279 163.268 144.622C163.375 144.966 163.549 145.285 163.78 145.561C164.011 145.838 164.293 146.066 164.612 146.233C164.931 146.4 165.28 146.503 165.639 146.535C165.997 146.568 166.359 146.529 166.703 146.422C167.046 146.315 167.366 146.141 167.642 145.911C167.919 145.68 168.147 145.398 168.315 145.079C168.482 144.76 168.585 144.412 168.617 144.053L168.977 140.081L169.236 137.228L173.953 140.934L174.627 141.464C175.201 141.887 175.916 142.07 176.622 141.975C177.328 141.879 177.969 141.513 178.41 140.954C178.85 140.394 179.056 139.685 178.983 138.977C178.909 138.269 178.563 137.617 178.017 137.16L174.389 134.309V132.602L180.141 136.334C180.454 136.536 180.805 136.671 181.173 136.731C181.765 137.842 181.957 139.123 181.715 140.359C181.474 141.595 180.815 142.71 179.848 143.518C178.882 144.326 177.667 144.777 176.407 144.796C175.147 144.815 173.919 144.4 172.929 143.621L171.518 142.508L171.356 144.296C171.291 145.014 171.085 145.711 170.75 146.349C170.415 146.987 169.957 147.553 169.404 148.015C168.85 148.476 168.211 148.824 167.522 149.039C166.834 149.253 166.11 149.33 165.392 149.265C164.674 149.2 163.976 148.994 163.337 148.66C162.699 148.325 162.132 147.868 161.671 147.315C161.209 146.761 160.861 146.122 160.646 145.435C160.431 144.747 160.354 144.023 160.419 143.306L160.581 141.517L158.993 142.355C158.055 142.852 156.993 143.066 155.936 142.97Z" fill="#A1ABB9"/>
<path d="M138.763 120.141C138.72 120.135 138.677 120.13 138.635 120.126C138.108 120.079 137.578 120.185 137.11 120.432L135.125 121.479V118.374L135.828 118.003C137.115 117.327 138.618 117.19 140.007 117.621C141.396 118.051 142.557 119.015 143.236 120.3C143.914 121.585 144.055 123.087 143.627 124.475C143.199 125.864 142.237 127.026 140.953 127.707L139.139 128.664L137.898 129.319L140.614 131.453C141.679 132.289 142.397 133.49 142.63 134.824C142.863 136.158 142.594 137.531 141.875 138.678C141.156 139.826 140.038 140.668 138.736 141.041C137.433 141.415 136.039 141.294 134.82 140.702C134.467 140.53 134.132 140.321 133.823 140.078L132.412 138.965L132.25 140.753C132.106 142.193 131.399 143.517 130.283 144.439C129.167 145.36 127.732 145.804 126.29 145.673C124.849 145.542 123.517 144.848 122.585 143.741C121.653 142.634 121.196 141.204 121.314 139.763L121.476 137.975L119.887 138.812C118.599 139.488 117.096 139.625 115.707 139.195C114.319 138.764 113.158 137.8 112.479 136.515C111.8 135.23 111.66 133.729 112.087 132.34C112.515 130.951 113.477 129.789 114.762 129.108L117.817 127.5L115.102 125.366C114.535 124.921 114.062 124.368 113.709 123.74C113.356 123.112 113.13 122.42 113.044 121.705C112.959 120.99 113.015 120.264 113.21 119.571C113.405 118.877 113.734 118.229 114.18 117.662C114.626 117.096 115.179 116.623 115.807 116.27C116.436 115.917 117.128 115.692 117.844 115.606C118.56 115.52 119.286 115.577 119.98 115.771C120.674 115.966 121.323 116.296 121.89 116.741L123.301 117.854L123.464 116.066C123.561 114.99 123.974 113.967 124.652 113.125C125.329 112.283 126.24 111.659 127.271 111.332C128.301 111.006 129.405 110.991 130.445 111.289C131.484 111.587 132.412 112.186 133.112 113.009C132.563 112.859 131.981 112.882 131.446 113.077C130.911 113.271 130.449 113.627 130.125 114.094C129.726 113.901 129.286 113.808 128.843 113.823C128.4 113.837 127.967 113.958 127.581 114.177C127.195 114.395 126.868 114.703 126.627 115.076C126.387 115.448 126.241 115.873 126.201 116.314L125.861 120.054L123.888 118.773C123.364 118.433 122.739 118.282 122.118 118.346C121.497 118.409 120.916 118.682 120.471 119.121L120.194 118.903C119.913 118.668 119.587 118.492 119.236 118.386C118.885 118.279 118.516 118.244 118.152 118.282C117.787 118.32 117.434 118.431 117.113 118.608C116.792 118.785 116.509 119.025 116.283 119.313C116.056 119.6 115.889 119.931 115.792 120.284C115.696 120.638 115.671 121.007 115.719 121.37C115.768 121.733 115.889 122.083 116.075 122.399C116.261 122.715 116.509 122.99 116.803 123.208L122.846 127.958L116.048 131.543C115.725 131.709 115.438 131.936 115.204 132.213C114.97 132.49 114.793 132.811 114.684 133.157C114.575 133.503 114.535 133.867 114.568 134.228C114.601 134.589 114.705 134.94 114.874 135.261C115.043 135.581 115.275 135.865 115.555 136.096C115.834 136.327 116.157 136.499 116.505 136.604C116.852 136.709 117.217 136.745 117.578 136.708C117.939 136.671 118.289 136.563 118.608 136.39L120.138 135.583L124.673 133.192L124.42 135.988L124.054 140.017C124.016 140.378 124.05 140.744 124.154 141.092C124.259 141.44 124.431 141.763 124.662 142.044C124.893 142.325 125.177 142.557 125.498 142.727C125.819 142.897 126.171 143.001 126.533 143.034C126.895 143.067 127.26 143.028 127.607 142.918C127.954 142.809 128.275 142.631 128.553 142.397C128.83 142.162 129.058 141.875 129.223 141.551C129.389 141.228 129.488 140.874 129.515 140.512L129.643 139.102L130.135 133.684L135.123 137.607L135.521 137.92C135.803 138.154 136.129 138.33 136.479 138.437C136.83 138.544 137.199 138.579 137.564 138.541C137.928 138.503 138.282 138.392 138.603 138.215C138.924 138.038 139.206 137.798 139.433 137.51C139.66 137.222 139.826 136.892 139.923 136.538C140.02 136.185 140.045 135.816 139.996 135.452C139.947 135.089 139.826 134.74 139.64 134.424C139.454 134.108 139.206 133.833 138.912 133.615L132.87 128.865L139.667 125.28C140.181 125.01 140.595 124.583 140.85 124.062C141.106 123.541 141.189 122.952 141.088 122.381C140.987 121.809 140.707 121.285 140.289 120.882C139.871 120.48 139.336 120.221 138.76 120.142L138.763 120.141Z" fill="#A1ABB9"/>
<path d="M96.7235 114.464C98.0109 113.789 99.5139 113.651 100.903 114.082C102.291 114.512 103.452 115.476 104.131 116.761C104.81 118.046 104.951 119.548 104.523 120.936C104.095 122.325 103.133 123.487 101.848 124.168L98.7928 125.78L99.7375 126.522L101.508 127.913C102.497 128.685 103.189 129.775 103.466 130.998C103.509 131.189 103.543 131.381 103.566 131.574C103.696 132.652 103.503 133.744 103.012 134.712C102.52 135.68 101.752 136.481 100.805 137.012C99.8578 137.544 98.7741 137.783 97.691 137.698C96.608 137.614 95.5743 137.21 94.7211 136.538L93.3098 135.425L93.1479 137.213C93.0218 138.631 92.3487 139.945 91.271 140.877C90.1933 141.808 88.7953 142.285 87.3726 142.205C85.9499 142.126 84.6138 141.496 83.6467 140.451C82.6797 139.405 82.1574 138.024 82.1903 136.601C82.5896 136.747 83.0177 136.799 83.4405 136.751C83.8633 136.703 84.2691 136.558 84.6257 136.326L84.983 136.094L84.9488 136.47C84.8834 137.173 85.0922 137.875 85.5316 138.428C85.9711 138.981 86.6073 139.343 87.3075 139.439C88.0077 139.534 88.7179 139.356 89.2899 138.941C89.8619 138.527 90.2515 137.907 90.3775 137.212C90.3924 137.131 90.4035 137.05 90.4109 136.967L91.0304 130.138L95.8582 133.935L96.4175 134.375C96.7006 134.597 97.0247 134.762 97.3715 134.859C97.7182 134.956 98.0807 134.984 98.4383 134.941C99.1605 134.855 99.8187 134.486 100.268 133.914C100.718 133.343 100.922 132.616 100.835 131.895C100.749 131.173 100.379 130.515 99.8073 130.066L93.7659 125.316L100.563 121.731C100.886 121.566 101.173 121.338 101.407 121.061C101.641 120.784 101.818 120.463 101.927 120.117C102.037 119.772 102.076 119.408 102.044 119.046C102.011 118.685 101.907 118.334 101.738 118.014C101.568 117.693 101.337 117.409 101.057 117.178C100.777 116.948 100.454 116.775 100.107 116.67C99.7595 116.565 99.3948 116.53 99.0339 116.566C98.6729 116.603 98.3228 116.711 98.004 116.884L95.8582 118.015L91.938 120.083L92.5574 113.254C92.6231 112.53 92.3984 111.81 91.9327 111.252C91.467 110.694 90.7984 110.343 90.0741 110.277C89.3498 110.212 88.629 110.436 88.0704 110.902C87.5118 111.367 87.161 112.035 87.0953 112.759L86.4766 119.587L81.0851 115.352C80.8036 115.116 80.4776 114.939 80.1264 114.831C79.7752 114.724 79.406 114.688 79.0406 114.725C78.6752 114.763 78.3212 114.874 77.9994 115.051C77.6777 115.228 77.3949 115.468 77.1677 115.756C76.9406 116.045 76.7737 116.376 76.6771 116.73C76.5805 117.084 76.556 117.454 76.6052 117.818C76.6544 118.182 76.7763 118.532 76.9635 118.848C77.1507 119.164 77.3996 119.439 77.6952 119.656L80.5094 121.868L83.7374 124.404L83.4693 124.545L76.9391 127.989C76.6206 128.157 76.3383 128.386 76.1083 128.663C75.8784 128.94 75.7053 129.259 75.5989 129.603C75.4925 129.947 75.4549 130.308 75.4883 130.666C75.5217 131.025 75.6254 131.373 75.7934 131.691C75.9615 132.01 76.1906 132.292 76.4678 132.521C76.7449 132.751 77.0647 132.924 77.4087 133.03C77.7528 133.137 78.1144 133.174 78.473 133.141C78.8316 133.108 79.1801 133.004 79.4986 132.836L81.7469 131.649L81.6354 131.723C81.0609 132.096 80.6468 132.67 80.4747 133.333C80.3026 133.995 80.385 134.698 80.7055 135.303C79.4137 135.962 77.9137 136.083 76.5328 135.64C75.152 135.197 74.0026 134.226 73.3356 132.94C72.6686 131.653 72.5381 130.155 72.9726 128.772C73.4071 127.389 74.3714 126.235 75.6549 125.56L78.7105 123.949L75.9951 121.815C75.4027 121.378 74.9042 120.828 74.5292 120.195C74.1541 119.562 73.9103 118.86 73.812 118.132C73.7137 117.403 73.763 116.662 73.9571 115.952C74.1511 115.243 74.4859 114.58 74.9415 114.002C75.3971 113.425 75.9643 112.944 76.6092 112.59C77.2542 112.236 77.9639 112.015 78.696 111.941C79.4281 111.866 80.1678 111.939 80.871 112.156C81.5743 112.373 82.2267 112.728 82.7897 113.202L84.2009 114.315L84.3628 112.527C84.4279 111.809 84.6338 111.111 84.9687 110.473C85.3037 109.835 85.7611 109.269 86.3149 108.808C86.8687 108.347 87.508 107.999 88.1964 107.784C88.8847 107.57 89.6086 107.493 90.3266 107.558C91.0447 107.623 91.7429 107.829 92.3814 108.163C93.0199 108.498 93.5862 108.955 94.0479 109.509C94.5096 110.062 94.8578 110.701 95.0724 111.389C95.2871 112.077 95.364 112.8 95.2989 113.518L95.2603 113.941L95.137 115.306L95.7765 114.969L96.7235 114.464Z" fill="#A1ABB9"/>
<path d="M60.6805 110.307C61.6017 110.39 62.4871 110.705 63.2543 111.221C64.0215 111.737 64.6457 112.439 65.0689 113.261C65.4921 114.083 65.7005 114.998 65.6749 115.922C65.6493 116.846 65.3904 117.749 64.9223 118.546C64.5817 118.4 64.2151 118.324 63.8446 118.323C63.3149 118.324 62.7969 118.479 62.3539 118.769L56.6021 122.501V120.76L61.4678 118.194C62.102 117.85 62.5749 117.27 62.7839 116.58C62.993 115.89 62.9213 115.145 62.5845 114.507C62.2477 113.869 61.6729 113.39 60.9847 113.173C60.2965 112.956 59.5505 113.019 58.9083 113.348L56.4186 114.661L52.8423 116.546L53.1647 112.997L53.4618 109.72C53.5274 108.997 53.3025 108.276 52.8368 107.718C52.371 107.16 51.7024 106.81 50.978 106.744C50.2537 106.679 49.533 106.903 48.9744 107.369C48.4159 107.834 48.0652 108.502 47.9996 109.226L47.3802 116.054L41.9894 111.818C41.708 111.582 41.382 111.405 41.0308 111.297C40.6796 111.19 40.3103 111.154 39.9449 111.192C39.5795 111.229 39.2255 111.34 38.9038 111.517C38.582 111.694 38.2992 111.934 38.072 112.223C37.8449 112.511 37.678 112.842 37.5814 113.197C37.4848 113.551 37.4603 113.921 37.5095 114.284C37.5587 114.648 37.6806 114.998 37.8678 115.314C38.0551 115.63 38.3039 115.905 38.5995 116.123L42.1647 118.923L44.6425 120.871L41.54 122.504L37.8449 124.452C37.5264 124.62 37.2441 124.849 37.0141 125.126C36.7842 125.403 36.6111 125.722 36.5047 126.066C36.3983 126.41 36.3607 126.771 36.3941 127.13C36.4275 127.488 36.5312 127.836 36.6992 128.155C36.8673 128.473 37.0964 128.755 37.3736 128.985C37.6507 129.215 37.9705 129.388 38.3145 129.494C38.6586 129.6 39.0202 129.638 39.3788 129.604C39.7374 129.571 40.0859 129.467 40.4044 129.299L46.4696 126.101L46.1829 129.26L45.8509 132.927C45.7918 133.58 45.9692 134.233 46.351 134.767C46.7327 135.3 47.2934 135.68 47.9311 135.835C48.5689 135.991 49.2414 135.913 49.8264 135.615C50.4114 135.318 50.8701 134.82 51.1192 134.213V138.038C50.2451 138.492 49.2647 138.703 48.2809 138.649C47.297 138.595 46.3459 138.277 45.5273 137.729C44.7086 137.181 44.0526 136.423 43.628 135.534C43.2033 134.646 43.0258 133.659 43.1139 132.679L43.2461 131.164L43.2706 130.891L41.6819 131.729C40.3944 132.404 38.8915 132.542 37.5027 132.111C36.114 131.68 34.9529 130.717 34.2743 129.432C33.5957 128.146 33.4549 126.645 33.8828 125.256C34.3107 123.867 35.2725 122.705 36.557 122.024L39.6119 120.414L36.8972 118.28C36.3304 117.834 35.8569 117.282 35.5038 116.654C35.1507 116.025 34.9248 115.334 34.8392 114.618C34.7535 113.903 34.8097 113.178 35.0045 112.484C35.1994 111.79 35.529 111.142 35.9747 110.575C36.4203 110.009 36.9732 109.536 37.6019 109.183C38.2305 108.83 38.9225 108.604 39.6384 108.519C40.3544 108.433 41.0801 108.489 41.7743 108.684C42.4685 108.879 43.1175 109.208 43.6843 109.654L45.0955 110.767L45.2575 108.979C45.3888 107.53 46.0909 106.192 47.2093 105.26C47.7631 104.799 48.4024 104.451 49.0907 104.236C49.779 104.022 50.5029 103.945 51.2209 104.01C51.939 104.075 52.6372 104.28 53.2757 104.615C53.9143 104.95 54.4806 105.407 54.9423 105.96C55.8749 107.078 56.325 108.52 56.1936 109.969L56.0309 111.758L57.6204 110.92C58.5593 110.423 59.6226 110.21 60.6805 110.307Z" fill="#A1ABB9"/>
<path d="M60.7116 126.527L60.601 126.44L62.9882 124.892C63.7361 125.677 64.2355 126.664 64.4235 127.731C64.6116 128.799 64.4799 129.897 64.0451 130.89L61.6757 129.353C61.8057 128.839 61.7838 128.299 61.6127 127.797C61.4416 127.296 61.1286 126.855 60.7116 126.527Z" fill="#A1ABB9"/>
<path d="M56.6021 133.613V132.599L59.0264 134.172C58.858 134.172 58.6887 134.164 58.5183 134.149C57.8522 134.089 57.2028 133.907 56.6021 133.613Z" fill="#A1ABB9"/>
<path d="M118.04 19.3683C128.444 20.3109 136.141 29.5367 135.197 39.9323L133.327 60.5423L95.5923 57.128L97.4618 36.5173C98.405 26.1173 107.637 18.4257 118.04 19.3683ZM130.838 57.5593L132.46 39.6844C133.266 30.7955 126.686 22.9102 117.792 22.1034C108.898 21.2966 101.006 27.8734 100.199 36.7615L98.5803 54.6409L130.838 57.5593Z" fill="#A1ABB9"/>
<path d="M53.236 84.8819L64.2805 85.8825V85.8528L66.2785 63.8348C66.4207 62.2552 66.8731 60.7192 67.6099 59.3145C68.3466 57.9098 69.3532 56.664 70.5721 55.6484C71.7911 54.6328 73.1984 53.8672 74.7136 53.3956C76.2289 52.9239 77.8223 52.7554 79.4027 52.8996L85.0119 53.408L85.6841 46.0007L86.6341 35.5353C86.9869 31.5658 88.1371 27.708 90.0158 24.1927C90.1353 23.97 90.2564 23.7474 90.3812 23.5292C93.7386 17.5988 99.0286 12.9975 105.369 10.4924C111.71 7.98725 118.719 7.72963 125.227 9.76248C131.735 11.7953 137.349 15.9958 141.133 21.6637C144.917 27.3315 146.643 34.1244 146.023 40.9098L144.401 58.7854L150.01 59.2931C151.591 59.4354 153.128 59.8876 154.533 60.624C155.939 61.3603 157.186 62.3663 158.202 63.5844C159.218 64.8025 159.984 66.2089 160.456 67.723C160.928 69.2372 161.097 70.8295 160.953 72.4089L159.022 93.6743L158.953 94.4269V94.4558L169.997 95.463C190.12 97.2867 205.007 115.132 203.183 135.238C202.96 137.715 202.484 140.163 201.764 142.544C196.838 158.819 180.976 169.993 163.381 168.399L86.3778 161.422H116.812L163.629 165.663C174.777 166.673 185.172 162.143 192.08 154.35C196.871 148.957 199.803 142.169 200.446 134.986C202.133 116.386 188.363 99.8793 169.749 98.1944L152.22 96.6061L120.629 93.7441L119.892 93.6773L102.115 92.0674L89.2441 90.9014H102.604C102.645 88.2381 103.732 85.6974 105.63 83.8282C107.529 81.959 110.088 80.9111 112.753 80.911H112.924C112.981 80.911 113.038 80.911 113.094 80.9155L113.264 80.9222L113.399 80.9296H113.442L113.6 80.9415L113.735 80.9534L113.788 80.9585C113.87 80.9667 113.951 80.9764 114.032 80.9868C114.089 80.9934 114.144 81.0009 114.2 81.009L114.286 81.0216C114.388 81.0375 114.49 81.0545 114.591 81.0729C114.632 81.0795 114.672 81.0877 114.712 81.0959L114.781 81.1092H114.8L115.023 81.1582L115.094 81.1745L115.192 81.1983C115.259 81.2146 115.325 81.2317 115.39 81.2495C115.495 81.2777 115.599 81.3074 115.703 81.3393L115.852 81.3853C116.012 81.4348 116.171 81.4897 116.327 81.5501L116.468 81.605L116.606 81.66L116.68 81.6919C116.714 81.7052 116.746 81.7193 116.78 81.7342L116.913 81.7928L117.046 81.8537L117.071 81.8655L117.203 81.9294C117.32 81.9858 117.435 82.0452 117.548 82.106C117.623 82.1454 117.697 82.1854 117.766 82.2263C119.108 83.2512 120.173 84.5948 120.863 86.1352C121.553 87.6756 121.848 89.3639 121.72 91.0468L150.646 93.6773L156.217 94.182L156.263 93.6773L156.515 90.9014L157.534 79.6641L158.214 72.164C158.361 70.5797 158.097 68.9843 157.449 67.531C157.144 65.2965 156.039 63.2483 154.338 61.7654C152.638 60.2825 150.457 59.4654 148.201 59.4653H141.58L143.288 40.6656C143.669 36.4222 143.042 32.1491 141.459 28.1934C139.876 24.2377 137.38 20.7113 134.176 17.9007C130.972 15.0901 127.15 13.0748 123.02 12.0186C118.89 10.9624 114.568 10.895 110.407 11.8221C109.628 11.9963 108.855 12.2058 108.089 12.4508C103.017 14.066 98.5352 17.1415 95.2053 21.2917C91.8753 25.4419 89.8455 30.482 89.3703 35.7803L87.5001 56.391L85.6834 56.2262L79.1539 55.6325C76.6887 55.4102 74.236 56.1756 72.3355 57.7603C70.4349 59.345 69.242 61.6192 69.0192 64.0827L68.9732 64.5866L67.9727 75.6146L67.0213 86.0999L67.9727 86.186V88.9738L52.9894 87.6163C34.3755 85.93 17.8577 99.6907 16.1717 118.291C15.3175 127.713 18.4289 136.598 24.1272 143.29C26.1837 147.184 28.9759 150.643 32.3493 153.476C19.9545 146.682 12.0792 132.991 13.4347 118.043C15.2581 97.9354 33.1129 83.059 53.236 84.8819ZM112.273 82.9269C108.272 82.5647 104.673 85.5136 104.246 89.503L118.987 90.839C119.285 86.8377 116.275 83.2906 112.273 82.9269Z" fill="#A1ABB9"/>
<path d="M117.118 154.729L47.4716 148.42C40.6411 147.806 34.2977 144.627 29.7201 139.524C24.8336 134.093 22.1307 126.727 22.8415 118.898C23.1313 115.668 23.9997 112.517 25.4055 109.595C29.573 100.937 38.162 94.9346 47.9908 94.2376C49.4545 94.1347 50.9242 94.1496 52.3856 94.2822L69.918 95.8705L104.199 98.976L117.333 100.164L119.586 100.368L151.612 103.27L169.141 104.858C184.078 106.211 195.129 119.455 193.775 134.382C193.278 139.929 191.078 145.187 187.478 149.437C184.289 151.79 180.623 153.415 176.738 154.197C184.505 150.684 190.218 143.206 191.041 134.133C192.259 120.714 182.324 108.807 168.896 107.591L151.368 106.003L117.086 102.897L103.953 101.71L89.1468 100.368L69.6714 98.6041L52.139 97.0158C38.711 95.7993 26.7959 105.726 25.5785 119.144C25.2422 122.805 25.742 126.494 27.0403 129.934C30.2459 138.43 38.0841 144.811 47.7234 145.684L147.555 154.729H117.118Z" fill="#A1ABB9"/>
<path d="M145.045 19.7869C144.617 20.0243 144.112 20.0824 143.641 19.9484C143.17 19.8144 142.771 19.4993 142.532 19.0721C142.291 18.6409 142.046 18.2045 141.801 17.7747C141.778 17.7339 141.757 17.6931 141.737 17.6515C141.538 17.2307 141.505 16.7501 141.646 16.3061C141.786 15.8622 142.089 15.4875 142.493 15.2571C142.884 15.0355 143.343 14.9637 143.783 15.0553C144.223 15.1468 144.615 15.3953 144.885 15.7544C144.931 15.8169 144.974 15.8821 145.013 15.9496C145.264 16.3905 145.515 16.8403 145.76 17.2767C145.998 17.7045 146.056 18.209 145.922 18.6796C145.788 19.1502 145.472 19.5484 145.045 19.7869Z" fill="#A1ABB9"/>
<path d="M147.888 26.4401C147.449 26.6295 146.953 26.6414 146.505 26.4732C146.057 26.3051 145.692 25.97 145.486 25.5383C145.476 25.5191 145.467 25.499 145.459 25.4797C145.263 25.027 145.062 24.5683 144.861 24.1155C144.667 23.669 144.658 23.1642 144.835 22.711C145.012 22.2579 145.361 21.8929 145.806 21.6955C146.251 21.4981 146.756 21.4842 147.212 21.6569C147.667 21.8296 148.035 22.1749 148.237 22.6177C148.444 23.0846 148.651 23.5544 148.849 24.0123C149.043 24.4617 149.051 24.9697 148.871 25.4249C148.691 25.88 148.337 26.2452 147.888 26.4401Z" fill="#A1ABB9"/>
<path d="M149.428 33.1647C149.012 33.2721 148.572 33.2317 148.183 33.0504C147.793 32.8691 147.479 32.5581 147.295 32.1708C147.244 32.0657 147.204 31.9558 147.175 31.8428C147.059 31.3974 146.934 30.9284 146.792 30.4081C146.671 29.9667 146.719 29.4963 146.926 29.0883C147.133 28.6802 147.484 28.3634 147.912 28.1994C148.339 28.0354 148.812 28.0359 149.239 28.2007C149.666 28.3655 150.017 28.6829 150.223 29.0914C150.279 29.2021 150.324 29.3182 150.356 29.438C150.505 29.9739 150.631 30.4563 150.75 30.9135C150.873 31.3873 150.803 31.8903 150.555 32.3123C150.307 32.7342 149.901 33.0408 149.428 33.1647Z" fill="#A1ABB9"/>
<path d="M150.194 39.9575C149.802 40.0168 149.401 39.9488 149.051 39.7634C148.701 39.5781 148.419 39.2853 148.247 38.928C148.17 38.7634 148.117 38.5884 148.089 38.4085L148.068 38.2682C148.001 37.8229 147.93 37.3827 147.856 36.9545C147.806 36.712 147.806 36.462 147.855 36.2193C147.903 35.9767 148.001 35.7463 148.14 35.5419C148.28 35.3376 148.459 35.1634 148.668 35.0297C148.876 34.896 149.11 34.8056 149.354 34.7638C149.598 34.7221 149.848 34.7298 150.089 34.7865C150.33 34.8433 150.557 34.9479 150.757 35.0942C150.957 35.2405 151.125 35.4254 151.252 35.638C151.379 35.8506 151.462 36.0865 151.495 36.3317C151.57 36.7867 151.648 37.2521 151.718 37.7145L151.739 37.8518C151.776 38.0914 151.765 38.3359 151.707 38.5713C151.649 38.8067 151.545 39.0283 151.402 39.2236C151.258 39.4189 151.077 39.584 150.87 39.7094C150.662 39.8348 150.432 39.9181 150.192 39.9545L150.194 39.9575Z" fill="#A1ABB9"/>
<path d="M150.1 47.134C149.857 47.1275 149.618 47.073 149.397 46.9737C149.175 46.8743 148.976 46.732 148.81 46.5551C148.709 46.448 148.62 46.3294 148.547 46.2018C148.379 45.9084 148.296 45.5745 148.307 45.2369C148.319 44.8146 148.326 44.3366 148.328 43.7762C148.329 43.5338 148.378 43.294 148.472 43.0704C148.566 42.8468 148.703 42.6439 148.875 42.4732C149.047 42.3026 149.251 42.1674 149.476 42.0756C149.7 41.9838 149.941 41.9371 150.183 41.9381C150.426 41.9391 150.666 41.9879 150.89 42.0816C151.113 42.1753 151.316 42.3121 151.487 42.4843C151.658 42.6564 151.793 42.8605 151.885 43.0848C151.977 43.3092 152.024 43.5494 152.023 43.7918C152.023 44.3856 152.012 44.8918 152 45.3438C151.984 45.8326 151.776 46.2955 151.42 46.631C151.064 46.9665 150.589 47.1474 150.1 47.134Z" fill="#A1ABB9"/>
<path d="M149.423 49.3711C149.818 49.4049 150.191 49.5654 150.487 49.8287C150.783 50.0919 150.986 50.4438 151.065 50.8318C151.103 51.0106 151.113 51.1939 151.097 51.3758C151.044 51.9651 150.993 52.4706 150.941 52.9196C150.899 53.2823 150.75 53.6245 150.514 53.9028C150.277 54.1812 149.964 54.3832 149.612 54.4834C149.261 54.5836 148.888 54.5774 148.54 54.4657C148.192 54.3539 147.885 54.1416 147.658 53.8556C147.567 53.7401 147.489 53.6143 147.427 53.4808C147.285 53.1733 147.231 52.8327 147.271 52.4966C147.319 52.0772 147.367 51.6059 147.419 51.0433C147.464 50.5564 147.7 50.1071 148.076 49.7938C148.451 49.4804 148.936 49.3284 149.423 49.3711Z" fill="#A1ABB9"/>
<path d="M43.5432 161.51C44.0178 161.646 44.5006 161.782 44.9775 161.914C45.022 161.926 45.0666 161.94 45.1097 161.956C45.5394 162.111 45.8961 162.421 46.1108 162.824C46.3255 163.227 46.383 163.696 46.2721 164.139C46.1613 164.582 45.8899 164.968 45.5106 165.223C45.1313 165.478 44.6709 165.583 44.2184 165.518C44.1414 165.507 44.0653 165.491 43.9904 165.47C43.5009 165.335 43.007 165.196 42.5234 165.057C42.0575 164.918 41.6652 164.601 41.4318 164.175C41.1984 163.748 41.1427 163.247 41.2768 162.78C41.4108 162.313 41.7238 161.917 42.1479 161.679C42.5719 161.441 43.0728 161.38 43.5417 161.509L43.5432 161.51Z" fill="#A1ABB9"/>
<path d="M36.8846 159.014L36.9447 159.036C37.403 159.218 37.8702 159.401 38.3322 159.58C38.7653 159.746 39.1199 160.07 39.3254 160.485C39.5309 160.901 39.5723 161.379 39.4412 161.824C39.3102 162.269 39.0163 162.648 38.6182 162.886C38.22 163.125 37.7467 163.204 37.2923 163.11C37.191 163.089 37.0916 163.06 36.9952 163.023C36.5176 162.838 36.04 162.652 35.5758 162.466C35.1282 162.286 34.7691 161.937 34.5753 161.495C34.3816 161.054 34.3686 160.554 34.5392 160.102C34.7097 159.651 35.0503 159.285 35.4879 159.081C35.9256 158.878 36.4255 158.853 36.8808 159.014H36.8846Z" fill="#A1ABB9"/>
<path d="M30.9166 155.59C31.0265 155.63 31.1325 155.68 31.233 155.739C31.6296 155.973 32.05 156.217 32.518 156.485C32.9152 156.712 33.2136 157.079 33.3554 157.514C33.4972 157.95 33.4722 158.422 33.2853 158.839C33.0984 159.257 32.7629 159.591 32.3439 159.775C31.9249 159.96 31.4523 159.982 31.0176 159.838C30.8999 159.8 30.7861 159.75 30.6782 159.69C30.1962 159.413 29.7646 159.162 29.3569 158.922C28.9602 158.689 28.6649 158.317 28.5286 157.878C28.3923 157.439 28.4249 156.964 28.62 156.548C28.815 156.132 29.1586 155.803 29.5834 155.627C30.0081 155.45 30.4836 155.438 30.9166 155.593V155.59Z" fill="#A1ABB9"/>
<path d="M24.5751 151.391C24.8149 151.354 25.0596 151.366 25.2951 151.424C25.5305 151.483 25.7521 151.587 25.9469 151.732L26.0613 151.815C26.4215 152.082 26.7847 152.345 27.139 152.596C27.3368 152.737 27.5049 152.915 27.6339 153.12C27.7628 153.325 27.85 153.554 27.8905 153.793C27.931 154.032 27.9239 154.277 27.8698 154.513C27.8157 154.749 27.7155 154.973 27.575 155.17C27.4345 155.368 27.2564 155.536 27.0509 155.665C26.8454 155.794 26.6166 155.881 26.3774 155.921C26.1382 155.962 25.8934 155.955 25.6569 155.901C25.4204 155.846 25.1969 155.746 24.9992 155.606C24.6226 155.339 24.2408 155.062 23.865 154.784L23.7536 154.702C23.4595 154.485 23.2363 154.186 23.1123 153.843C22.9882 153.499 22.969 153.127 23.0569 152.772C23.1449 152.418 23.3361 152.097 23.6063 151.851C23.8765 151.605 24.2137 151.445 24.5751 151.391Z" fill="#A1ABB9"/>
<path d="M18.3643 146.973C18.5407 146.807 18.7483 146.677 18.9752 146.591C19.2021 146.505 19.4439 146.465 19.6864 146.473C19.8337 146.478 19.9801 146.5 20.1223 146.538C20.4492 146.629 20.7444 146.809 20.975 147.058C21.2647 147.365 21.5974 147.709 21.9918 148.107C22.1625 148.28 22.2976 148.484 22.3892 148.709C22.4809 148.933 22.5274 149.174 22.5261 149.416C22.5248 149.659 22.4757 149.899 22.3816 150.122C22.2875 150.346 22.1503 150.549 21.9777 150.719C21.8052 150.89 21.6007 151.025 21.376 151.116C21.1512 151.208 20.9106 151.254 20.6679 151.253C20.4252 151.252 20.1852 151.203 19.9614 151.109C19.7377 151.015 19.5347 150.878 19.364 150.705C18.9473 150.284 18.5938 149.919 18.2841 149.592C18.1168 149.415 17.9862 149.207 17.8997 148.979C17.8132 148.752 17.7725 148.509 17.78 148.266C17.7874 148.023 17.8429 147.783 17.9432 147.561C18.0434 147.339 18.1865 147.14 18.3643 146.973Z" fill="#A1ABB9"/>
<path d="M13.9821 140.872C14.172 140.721 14.39 140.61 14.6235 140.543C14.8569 140.477 15.1012 140.458 15.3421 140.487C15.4884 140.504 15.6323 140.539 15.7706 140.589C16.0882 140.707 16.367 140.91 16.5765 141.176C16.8387 141.507 17.1403 141.878 17.499 142.309C17.6541 142.495 17.7709 142.711 17.8428 142.942C17.9147 143.174 17.9402 143.417 17.918 143.658C17.8958 143.9 17.8261 144.135 17.7131 144.349C17.6002 144.564 17.446 144.754 17.2595 144.909C17.0729 145.064 16.8577 145.18 16.626 145.252C16.3943 145.324 16.1507 145.35 15.9091 145.327C15.6676 145.305 15.4327 145.236 15.2181 145.123C15.0034 145.01 14.8131 144.856 14.658 144.669C14.2792 144.214 13.9583 143.82 13.6776 143.465C13.3745 143.08 13.2364 142.592 13.2935 142.106C13.3506 141.62 13.5982 141.176 13.9821 140.872Z" fill="#A1ABB9"/>
<path d="M59.4564 81.4841L56.8279 78.8573C56.6962 78.7258 56.5917 78.5695 56.5205 78.3976C56.4492 78.2257 56.4125 78.0414 56.4125 77.8553C56.4125 77.6692 56.4492 77.485 56.5205 77.3131C56.5917 77.1411 56.6962 76.9849 56.8279 76.8533C56.9595 76.7218 57.1159 76.6174 57.2879 76.5462C57.46 76.4749 57.6443 76.4383 57.8306 76.4383C58.0168 76.4383 58.2012 76.4749 58.3732 76.5462C58.5453 76.6174 58.7016 76.7218 58.8333 76.8533L61.4611 79.4793C61.727 79.7451 61.8764 80.1055 61.8764 80.4813C61.8764 80.8571 61.727 81.2176 61.4611 81.4833C61.1951 81.7491 60.8345 81.8984 60.4584 81.8984C60.0823 81.8984 59.7216 81.7491 59.4557 81.4833L59.4564 81.4841Z" fill="#A1ABB9"/>
<path d="M48.3124 70.3478L45.6838 67.7218C45.4179 67.456 45.2685 67.0956 45.2685 66.7198C45.2685 66.344 45.4179 65.9835 45.6838 65.7178C45.9497 65.452 46.3104 65.3027 46.6865 65.3027C47.0626 65.3027 47.4233 65.452 47.6892 65.7178L50.317 68.3445C50.4487 68.4761 50.5532 68.6323 50.6244 68.8042C50.6957 68.9761 50.7324 69.1604 50.7324 69.3465C50.7324 69.5326 50.6957 69.7169 50.6244 69.8888C50.5532 70.0607 50.4487 70.2169 50.317 70.3485C50.1853 70.4801 50.029 70.5845 49.857 70.6557C49.6849 70.7269 49.5005 70.7635 49.3143 70.7635C49.1281 70.7635 48.9437 70.7269 48.7717 70.6557C48.5996 70.5845 48.4433 70.4801 48.3116 70.3485L48.3124 70.3478Z" fill="#A1ABB9"/>
<path d="M47.6885 81.4841C47.4225 81.7498 47.0618 81.8991 46.6858 81.8991C46.3097 81.8991 45.949 81.7498 45.6831 81.4841C45.4171 81.2183 45.2677 80.8579 45.2677 80.4821C45.2677 80.1062 45.4171 79.7458 45.6831 79.4801L48.3116 76.8533C48.5775 76.5876 48.9382 76.4383 49.3143 76.4383C49.6904 76.4383 50.0511 76.5876 50.317 76.8533C50.5829 77.1191 50.7324 77.4795 50.7324 77.8553C50.7324 78.2312 50.5829 78.5916 50.317 78.8573L47.6885 81.4841Z" fill="#A1ABB9"/>
<path d="M58.8325 70.3477C58.7008 70.4793 58.5445 70.5837 58.3725 70.6549C58.2004 70.7261 58.016 70.7628 57.8298 70.7628C57.6436 70.7628 57.4592 70.7261 57.2872 70.6549C57.1151 70.5837 56.9588 70.4793 56.8271 70.3477C56.6954 70.2162 56.591 70.0599 56.5197 69.888C56.4485 69.7161 56.4118 69.5318 56.4118 69.3457C56.4118 69.1596 56.4485 68.9754 56.5197 68.8035C56.591 68.6315 56.6954 68.4753 56.8271 68.3437L59.4557 65.717C59.7216 65.4513 60.0823 65.302 60.4584 65.302C60.8345 65.302 61.1951 65.4513 61.4611 65.717C61.727 65.9828 61.8764 66.3432 61.8764 66.719C61.8764 67.0948 61.727 67.4553 61.4611 67.721L58.8325 70.3477Z" fill="#A1ABB9"/>
<path d="M9.58062 135.506L11.4375 137.361C11.6192 137.55 11.7196 137.803 11.7171 138.065C11.7145 138.327 11.6092 138.577 11.4239 138.763C11.2385 138.948 10.9878 139.053 10.7256 139.055C10.4635 139.058 10.2108 138.958 10.0218 138.776L8.16495 136.921C7.97713 136.733 7.87157 136.478 7.8715 136.213C7.87143 135.948 7.97686 135.693 8.16459 135.506C8.35232 135.318 8.60698 135.212 8.87253 135.212C9.13809 135.212 9.39279 135.318 9.58062 135.505V135.506Z" fill="#A1ABB9"/>
<path d="M2.14952 130.91L0.292665 129.054C0.11092 128.866 0.0105388 128.613 0.0130858 128.351C0.0156329 128.089 0.120902 127.839 0.306284 127.653C0.491666 127.468 0.742368 127.363 1.00453 127.36C1.26668 127.358 1.51939 127.458 1.70833 127.64L3.56519 129.495C3.65814 129.588 3.73187 129.699 3.78215 129.82C3.83244 129.941 3.85831 130.072 3.85828 130.203C3.85824 130.334 3.8323 130.464 3.78195 130.586C3.7316 130.707 3.65783 130.818 3.56482 130.91C3.47182 131.003 3.36141 131.077 3.23991 131.127C3.11842 131.177 2.98821 131.203 2.85672 131.203C2.72523 131.203 2.59503 131.177 2.47356 131.127C2.35209 131.077 2.24173 131.003 2.14877 130.91H2.14952Z" fill="#A1ABB9"/>
<path d="M2.1495 135.506C2.2425 135.413 2.35291 135.339 2.47443 135.289C2.59594 135.239 2.72619 135.213 2.85771 135.213C2.98924 135.213 3.11947 135.239 3.24098 135.289C3.36249 135.339 3.47291 135.413 3.56591 135.506C3.65891 135.599 3.73269 135.709 3.78302 135.831C3.83335 135.952 3.85925 136.082 3.85925 136.214C3.85925 136.345 3.83335 136.475 3.78302 136.597C3.73269 136.718 3.65891 136.828 3.56591 136.921L1.70906 138.777C1.52011 138.958 1.26741 139.059 1.00525 139.056C0.743091 139.054 0.492388 138.949 0.307006 138.763C0.121624 138.578 0.0163555 138.327 0.0138085 138.066C0.0112615 137.804 0.111643 137.551 0.293388 137.362L2.1495 135.506Z" fill="#A1ABB9"/>
<path d="M10.0218 127.64C10.2108 127.458 10.4635 127.358 10.7256 127.36C10.9878 127.363 11.2385 127.468 11.4239 127.653C11.6092 127.839 11.7145 128.089 11.7171 128.351C11.7196 128.613 11.6192 128.866 11.4375 129.054L9.58062 130.91C9.39167 131.092 9.13897 131.192 8.87681 131.189C8.61466 131.187 8.36395 131.082 8.17857 130.896C7.99319 130.711 7.88792 130.461 7.88537 130.199C7.88283 129.937 7.98321 129.684 8.16495 129.495L10.0218 127.64Z" fill="#A1ABB9"/>
<path d="M214.85 113.37L216.707 115.225C216.8 115.318 216.873 115.429 216.924 115.55C216.974 115.671 217 115.801 217 115.933C217 116.064 216.974 116.194 216.924 116.316C216.874 116.437 216.8 116.548 216.707 116.64C216.614 116.733 216.504 116.807 216.382 116.857C216.261 116.908 216.131 116.934 215.999 116.934C215.868 116.934 215.737 116.908 215.616 116.858C215.494 116.807 215.384 116.734 215.291 116.641L213.434 114.785C213.338 114.693 213.262 114.583 213.209 114.461C213.156 114.338 213.128 114.207 213.127 114.074C213.126 113.941 213.151 113.809 213.201 113.686C213.252 113.563 213.326 113.451 213.42 113.357C213.514 113.263 213.626 113.188 213.75 113.138C213.873 113.088 214.005 113.062 214.138 113.064C214.271 113.065 214.403 113.093 214.525 113.146C214.647 113.198 214.757 113.275 214.85 113.371V113.37Z" fill="#A1ABB9"/>
<path d="M206.978 105.504L208.835 107.359C208.931 107.452 209.008 107.562 209.06 107.684C209.113 107.806 209.141 107.938 209.142 108.071C209.143 108.204 209.118 108.336 209.068 108.459C209.018 108.582 208.943 108.694 208.849 108.788C208.755 108.882 208.643 108.956 208.52 109.007C208.396 109.057 208.264 109.082 208.131 109.081C207.998 109.08 207.867 109.052 207.744 108.999C207.622 108.946 207.512 108.87 207.419 108.774L205.563 106.918C205.381 106.73 205.28 106.477 205.283 106.215C205.286 105.953 205.391 105.703 205.576 105.517C205.762 105.332 206.012 105.227 206.274 105.224C206.537 105.222 206.789 105.322 206.978 105.504Z" fill="#A1ABB9"/>
<path d="M207.419 113.37C207.512 113.274 207.622 113.197 207.744 113.145C207.867 113.092 207.998 113.064 208.131 113.063C208.264 113.062 208.396 113.087 208.52 113.137C208.643 113.188 208.755 113.262 208.849 113.356C208.943 113.45 209.018 113.562 209.068 113.685C209.118 113.808 209.143 113.94 209.142 114.073C209.141 114.206 209.113 114.338 209.06 114.46C209.008 114.582 208.931 114.692 208.835 114.785L206.978 116.64C206.79 116.828 206.536 116.933 206.27 116.933C206.005 116.933 205.75 116.827 205.562 116.64C205.374 116.452 205.269 116.197 205.269 115.932C205.269 115.667 205.375 115.412 205.563 115.225L207.419 113.37Z" fill="#A1ABB9"/>
<path d="M215.291 105.504C215.48 105.322 215.733 105.222 215.995 105.224C216.257 105.227 216.508 105.332 216.693 105.517C216.878 105.703 216.984 105.953 216.986 106.215C216.989 106.477 216.888 106.73 216.707 106.918L214.85 108.774C214.758 108.87 214.647 108.946 214.525 108.999C214.403 109.052 214.271 109.08 214.138 109.081C214.005 109.082 213.873 109.057 213.75 109.007C213.626 108.956 213.514 108.882 213.42 108.788C213.326 108.694 213.252 108.582 213.201 108.459C213.151 108.336 213.126 108.204 213.127 108.071C213.128 107.938 213.156 107.806 213.209 107.684C213.262 107.562 213.338 107.452 213.434 107.359L215.291 105.504Z" fill="#A1ABB9"/>
<path d="M142.601 11.4287L140.744 9.57316C140.563 9.38435 140.462 9.13183 140.465 8.86985C140.467 8.60788 140.572 8.35736 140.758 8.1721C140.943 7.98685 141.194 7.88165 141.456 7.87911C141.718 7.87656 141.971 7.97687 142.16 8.15849L144.017 10.014C144.199 10.2029 144.299 10.4554 144.296 10.7174C144.294 10.9793 144.189 11.2299 144.003 11.4151C143.818 11.6004 143.567 11.7056 143.305 11.7081C143.043 11.7106 142.79 11.6103 142.601 11.4287Z" fill="#A1ABB9"/>
<path d="M134.73 3.56266L132.873 1.70711C132.685 1.51951 132.579 1.26503 132.579 0.999658C132.579 0.734286 132.685 0.479757 132.872 0.292061C133.06 0.104365 133.315 -0.00112054 133.58 -0.00119015C133.846 -0.00125976 134.1 0.104092 134.288 0.291689L136.145 2.14724C136.327 2.33606 136.427 2.58858 136.425 2.85055C136.422 3.11253 136.317 3.36305 136.132 3.5483C135.946 3.73356 135.695 3.83876 135.433 3.8413C135.171 3.84385 134.918 3.74353 134.73 3.56192V3.56266Z" fill="#A1ABB9"/>
<path d="M134.288 11.4287C134.099 11.6103 133.847 11.7106 133.585 11.7081C133.322 11.7056 133.072 11.6004 132.886 11.4151C132.701 11.2299 132.596 10.9793 132.593 10.7174C132.591 10.4554 132.691 10.2029 132.873 10.014L134.73 8.15849C134.918 7.97687 135.171 7.87656 135.433 7.87911C135.695 7.88165 135.946 7.98685 136.132 8.1721C136.317 8.35736 136.422 8.60788 136.425 8.86985C136.427 9.13183 136.327 9.38435 136.145 9.57316L134.288 11.4287Z" fill="#A1ABB9"/>
<path d="M142.161 3.56265C141.972 3.74427 141.719 3.84458 141.457 3.84203C141.195 3.83949 140.944 3.73429 140.759 3.54904C140.573 3.36378 140.468 3.11326 140.465 2.85129C140.463 2.58931 140.563 2.33679 140.745 2.14798L142.602 0.292422C142.695 0.199533 142.805 0.125856 142.927 0.0756037C143.048 0.0253512 143.178 -0.00049219 143.31 -0.000457729C143.441 -0.000423268 143.572 0.0254914 143.693 0.0758075C143.815 0.126124 143.925 0.199856 144.018 0.292793C144.111 0.385731 144.185 0.496055 144.235 0.617465C144.285 0.738875 144.311 0.868991 144.311 1.00039C144.311 1.13179 144.285 1.2619 144.235 1.38328C144.184 1.50466 144.111 1.61495 144.018 1.70784L142.161 3.56265Z" fill="#A1ABB9"/>
<path d="M106.156 172.437L108.013 174.292C108.106 174.385 108.18 174.495 108.23 174.617C108.28 174.738 108.306 174.868 108.306 175C108.306 175.131 108.28 175.261 108.23 175.383C108.18 175.504 108.106 175.614 108.013 175.707C107.92 175.8 107.809 175.874 107.688 175.924C107.566 175.974 107.436 176 107.305 176C107.173 176 107.043 175.974 106.921 175.924C106.8 175.873 106.69 175.8 106.597 175.707L104.74 173.851C104.558 173.662 104.458 173.41 104.46 173.148C104.463 172.886 104.568 172.635 104.753 172.45C104.939 172.265 105.19 172.16 105.452 172.157C105.714 172.155 105.967 172.255 106.156 172.437H106.156Z" fill="#A1ABB9"/>
<path d="M98.2833 164.571L100.14 166.426C100.322 166.615 100.422 166.867 100.42 167.129C100.417 167.391 100.312 167.642 100.126 167.827C99.9411 168.012 99.6904 168.118 99.4283 168.12C99.1661 168.123 98.9134 168.022 98.7244 167.841L96.8676 165.985C96.7716 165.893 96.6951 165.783 96.6424 165.66C96.5896 165.538 96.5618 165.407 96.5605 165.274C96.5592 165.141 96.5845 165.009 96.6348 164.886C96.6852 164.763 96.7596 164.651 96.8537 164.557C96.9478 164.463 97.0598 164.388 97.183 164.338C97.3063 164.288 97.4383 164.262 97.5714 164.264C97.7045 164.265 97.836 164.293 97.9583 164.345C98.0805 164.398 98.191 164.475 98.2833 164.571Z" fill="#A1ABB9"/>
<path d="M98.7289 172.437C98.9178 172.255 99.1705 172.155 99.4327 172.157C99.6949 172.16 99.9456 172.265 100.131 172.45C100.316 172.635 100.422 172.886 100.424 173.148C100.427 173.41 100.326 173.662 100.145 173.851L98.2877 175.707C98.1954 175.803 98.0849 175.879 97.9627 175.932C97.8405 175.985 97.709 176.012 97.5759 176.014C97.4427 176.015 97.3107 175.99 97.1875 175.939C97.0642 175.889 96.9523 175.815 96.8582 175.721C96.764 175.627 96.6896 175.515 96.6393 175.392C96.5889 175.268 96.5637 175.137 96.565 175.004C96.5663 174.87 96.5941 174.739 96.6468 174.617C96.6995 174.495 96.7761 174.384 96.872 174.292L98.7289 172.437Z" fill="#A1ABB9"/>
<path d="M106.602 164.571C106.695 164.478 106.805 164.404 106.927 164.354C107.048 164.303 107.178 164.277 107.31 164.277C107.441 164.277 107.572 164.303 107.693 164.353C107.815 164.404 107.925 164.477 108.018 164.57C108.111 164.663 108.185 164.773 108.235 164.895C108.285 165.016 108.311 165.146 108.311 165.278C108.311 165.409 108.286 165.539 108.235 165.661C108.185 165.782 108.111 165.892 108.018 165.985L106.161 167.841C105.973 168.022 105.72 168.123 105.458 168.12C105.196 168.118 104.945 168.012 104.759 167.827C104.574 167.642 104.469 167.391 104.466 167.129C104.464 166.867 104.564 166.615 104.746 166.426L106.602 164.571Z" fill="#A1ABB9"/>
</g>
<defs>
<clipPath id="clip0_23_230">
<rect width="217" height="176" fill="white" transform="matrix(-1 0 0 1 217 0)"/>
</clipPath>
</defs>
</svg>
