<svg width="13" height="15" viewBox="0 0 13 15" fill="none" xmlns="http://www.w3.org/2000/svg">
<path d="M6.72305 13.4363L6.48822 12.9949L6.48822 12.9949L6.72305 13.4363ZM5.92742 13.4363L6.16225 12.9949L6.16225 12.9949L5.92742 13.4363ZM11.1505 6.78861C11.1505 8.46995 10.3167 9.84955 9.29065 10.9118C8.2644 11.9742 7.08332 12.6783 6.48822 12.9949L6.95788 13.8777C7.59881 13.5368 8.88144 12.7747 10.0099 11.6065C11.1385 10.4382 12.1505 8.82269 12.1505 6.78861H11.1505ZM6.32524 1.96338C8.99014 1.96338 11.1505 4.12371 11.1505 6.78861H12.1505C12.1505 3.57143 9.54242 0.963379 6.32524 0.963379V1.96338ZM1.5 6.78861C1.5 4.12371 3.66033 1.96338 6.32524 1.96338V0.963379C3.10805 0.963379 0.5 3.57143 0.5 6.78861H1.5ZM6.16225 12.9949C5.56715 12.6783 4.38607 11.9742 3.35982 10.9118C2.33373 9.84955 1.5 8.46995 1.5 6.78861H0.5C0.5 8.82269 1.51196 10.4382 2.64058 11.6065C3.76903 12.7747 5.05166 13.5368 5.69259 13.8777L6.16225 12.9949ZM6.48822 12.9949C6.38355 13.0506 6.26692 13.0506 6.16225 12.9949L5.69259 13.8777C6.09089 14.0896 6.55958 14.0896 6.95788 13.8777L6.48822 12.9949ZM8.10748 6.78861C8.10748 7.77292 7.30954 8.57086 6.32524 8.57086V9.57086C7.86183 9.57086 9.10748 8.32521 9.10748 6.78861H8.10748ZM6.32524 5.00637C7.30954 5.00637 8.10748 5.80431 8.10748 6.78861H9.10748C9.10748 5.25202 7.86183 4.00637 6.32524 4.00637V5.00637ZM4.54299 6.78861C4.54299 5.80431 5.34093 5.00637 6.32524 5.00637V4.00637C4.78864 4.00637 3.54299 5.25202 3.54299 6.78861H4.54299ZM6.32524 8.57086C5.34093 8.57086 4.54299 7.77292 4.54299 6.78861H3.54299C3.54299 8.32521 4.78864 9.57086 6.32524 9.57086V8.57086Z" fill="#33363F"/>
</svg>
