<svg width="20" height="20" viewBox="0 0 20 20" fill="none" xmlns="http://www.w3.org/2000/svg">
<path d="M14.1667 19.1667H5.83333C4.94955 19.1658 4.10222 18.8143 3.47729 18.1894C2.85236 17.5645 2.50088 16.7171 2.5 15.8333V10.8333C2.50088 9.94955 2.85236 9.10222 3.47729 8.47729C4.10222 7.85236 4.94955 7.50088 5.83333 7.5H14.1667C15.0505 7.50088 15.8978 7.85236 16.5227 8.47729C17.1476 9.10222 17.4991 9.94955 17.5 10.8333V15.8333C17.4991 16.7171 17.1476 17.5645 16.5227 18.1894C15.8978 18.8143 15.0505 19.1658 14.1667 19.1667ZM5.83333 9.16667C5.39144 9.16711 4.96777 9.34284 4.65531 9.65531C4.34284 9.96777 4.16711 10.3914 4.16667 10.8333V15.8333C4.16711 16.2752 4.34284 16.6989 4.65531 17.0114C4.96777 17.3238 5.39144 17.4996 5.83333 17.5H14.1667C14.6086 17.4996 15.0322 17.3238 15.3447 17.0114C15.6572 16.6989 15.8329 16.2752 15.8333 15.8333V10.8333C15.8329 10.3914 15.6572 9.96777 15.3447 9.65531C15.0322 9.34284 14.6086 9.16711 14.1667 9.16667H5.83333Z" fill="#757575"/>
<path d="M13.7498 9.16668H6.24984C6.02882 9.16668 5.81686 9.07888 5.66058 8.9226C5.5043 8.76632 5.4165 8.55436 5.4165 8.33334V5.41668C5.4165 4.2011 5.89939 3.03531 6.75893 2.17577C7.61847 1.31623 8.78426 0.833344 9.99984 0.833344C11.2154 0.833344 12.3812 1.31623 13.2407 2.17577C14.1003 3.03531 14.5832 4.2011 14.5832 5.41668V8.33334C14.5832 8.55436 14.4954 8.76632 14.3391 8.9226C14.1828 9.07888 13.9709 9.16668 13.7498 9.16668ZM7.08317 7.50001H12.9165V5.41668C12.9165 4.64313 12.6092 3.90126 12.0622 3.35428C11.5153 2.8073 10.7734 2.50001 9.99984 2.50001C9.22629 2.50001 8.48442 2.8073 7.93744 3.35428C7.39046 3.90126 7.08317 4.64313 7.08317 5.41668V7.50001Z" fill="#757575"/>
<path d="M10 13.75C10.6904 13.75 11.25 13.1904 11.25 12.5C11.25 11.8096 10.6904 11.25 10 11.25C9.30964 11.25 8.75 11.8096 8.75 12.5C8.75 13.1904 9.30964 13.75 10 13.75Z" fill="#757575"/>
</svg>
