<svg width="375" height="142" viewBox="0 0 375 142" fill="none" xmlns="http://www.w3.org/2000/svg">
<g clip-path="url(#clip0_129_383)">
<path d="M375 136.502H0V142H375V136.502Z" fill="#DDE3EB"/>
<path fill-rule="evenodd" clip-rule="evenodd" d="M46.9922 110.788V139.779L48.6141 141.986H31.1062L32.4375 139.779H32.4797V122.239L31.6078 119.826H32.5453C32.3984 118.099 31.6136 116.489 30.3445 115.31C29.0754 114.132 27.4132 113.47 25.6828 113.454C23.9368 113.449 22.2529 114.103 20.9677 115.287C19.6825 116.471 18.8905 118.097 18.75 119.84H19.6875L18.8156 122.253V139.793H18.8578L20.4375 142H2.95312L4.24218 139.793V107.553L0.459368 104.595H0.332825V104.304H4.24218V99.5197H46.9922V104.309H50.9437V104.6H50.7375L46.9875 107.558V110.788H46.9922Z" fill="#DDE3EB"/>
<path fill-rule="evenodd" clip-rule="evenodd" d="M48.2016 117.051V122.38H48.4922V142H98.5219V122.38H99.0609V116.422H98.3578V71.9319H99.375V70.6831H97.3828V68.8051H96.675V68.2229H96.4641L95.6766 66.8144L94.8422 65.312L94.0547 66.8144L93.2625 68.2229H93.0562V68.8051H81.2437V70.6831H79.2047V71.9319H80.3297V92.219H75.4219L74.6297 86.2611L74.4656 84.6788V76.1809H75.7969V75.1386H74.4656V74.0118H73.3406V75.1386H72.0141V76.1809H73.3406V84.4957L73.0922 86.2846L72.3047 92.2425H66.7734V71.9554H67.7719V70.7066H65.775V68.8286H54.1875V68.2464H53.9812L53.189 66.8379L52.4015 65.3355L51.5672 66.8379L50.8219 68.2464H50.5688V68.8286H49.6313V70.7066H47.5969V71.9554H48.7172V116.422H48.2203L48.2016 117.051ZM66.75 94.097H72.3234V97.5948L71.9906 98.1347L70.0781 101.139H66.75V94.097ZM75.3984 94.097H80.3062V101.139H77.6438L75.7688 98.1347L75.3938 97.5948L75.3984 94.097ZM67.6219 109.426C67.6915 107.99 68.2842 106.628 69.2878 105.6C70.2914 104.571 71.6365 103.947 73.0687 103.844C71.639 103.953 70.2979 104.58 69.2957 105.607C68.2934 106.635 67.6985 107.992 67.6219 109.426ZM95.3625 101.553H83.3016V92.388H95.3625V101.553ZM91.0359 93.8482C91.4531 93.8482 91.8281 94.097 91.8281 94.3881V100.595H90.2437V94.3881C90.2437 94.097 90.5766 93.8482 91.0359 93.8482ZM87.9187 93.8482C88.3312 93.8482 88.7062 94.097 88.7062 94.3881V100.595H87.1266V94.3881C87.1266 94.097 87.4594 93.8482 87.9187 93.8482ZM92.8266 104.595H94.4484V102.971H92.8125L92.8266 104.595ZM84.3 104.595H85.9641V102.971H84.3V104.595ZM59.4281 93.8482C59.8453 93.8482 60.2203 94.097 60.2203 94.3881V100.595H58.6406V94.3881C58.6406 94.097 58.9734 93.8482 59.4281 93.8482ZM56.3109 93.8482C56.7281 93.8482 57.0609 94.097 57.0609 94.3881V100.595H55.5187V94.3881C55.5187 94.097 55.8516 93.8482 56.3109 93.8482ZM61.2187 104.595H62.8406V102.971H61.2187V104.595ZM52.6922 104.595H54.3141V102.971H52.6922V104.595ZM95.4844 140.793H94.3641V129.793C94.3641 126.422 89.4141 123.69 89.4141 123.69C89.4141 123.69 84.4641 126.441 84.4641 129.793V140.793H82.8422V122.38H95.4984V140.793H95.4844ZM79.8047 140.793H78.5203V129.793C78.5203 126.422 73.5703 123.69 73.5703 123.69C73.5703 123.69 68.6203 126.441 68.6203 129.793V140.793H67.2141V122.38H79.8141V140.793H79.8047ZM64.1297 140.793H62.7234V129.793C62.7234 126.422 57.7734 123.69 57.7734 123.69C57.7734 123.69 52.8281 126.441 52.8281 129.793V140.793H51.5625V122.38H64.125V140.793H64.1297Z" fill="#DDE3EB"/>
<path fill-rule="evenodd" clip-rule="evenodd" d="M256.805 139.042H257.639L251.358 126.877C247.946 123.603 243.399 121.782 238.673 121.797C234.383 121.793 230.23 123.314 226.955 126.089L220.261 139.042H221.466V142H205.664V139.042H207.741L220.758 113.844V110.051H223.547L228.159 96.806V96.5102H228.244L229.533 92.7542H229.036V89.2565H230.489V88.5898H228.328V84.7962H231.609C234.061 65.5468 235.228 32.4799 235.603 21.8833H235.519V21.0476H235.641L235.683 19.0053H235.102V15.592H236.602V11.3666H238.345V5.40864H238.927V-0.0140991H239.592V5.44148H240.216V11.3995H241.922V15.6249H243.459V19.0382H242.812L242.897 21.0805H242.981V21.9162H242.939C243.145 27.8694 243.563 41.0342 244.397 54.8657L244.434 54.9877L244.397 55.03C244.894 63.4011 245.517 71.9319 246.272 79.2749C246.478 81.2703 246.741 83.0638 246.895 84.8103H250.219V88.6039H248.058V89.2706H249.464V92.7683H249.131L250.42 96.5243L255.108 110.065H256.561V113.605L256.852 113.483L270.075 139.056H272.573V142.014H256.767L256.805 139.042ZM224.7 109.177L228.919 106.717L226.467 104.37L224.7 109.177ZM227.072 102.388L230.822 99.9282L228.703 97.806L227.072 102.388ZM229.275 96.1393L232.022 94.3881L230.358 92.9796L229.275 96.1393ZM248.241 92.7636H248.114L246.534 94.2613L249.319 95.8858L248.241 92.7636ZM250.027 97.8483L248.072 99.8436L251.442 101.97L250.027 97.8483ZM252.23 104.177L249.572 106.717L254.02 109.299L252.23 104.177ZM238.8 19.0335L237.802 19.8692L236.803 19.0335H238.8ZM237.511 20.1603L236.344 21.0993L236.428 19.2213L237.511 20.1603ZM236.888 21.0993L237.717 20.3903L238.467 21.0993H236.888ZM238.05 20.1603L238.88 19.4936V20.9021L238.05 20.1603ZM238.88 22.0383L237.633 23.3294L236.344 21.9585H238.88V22.0383ZM237.3 23.6628L236.259 24.7895L236.302 22.5407L237.3 23.6628ZM236.259 25.3295L237.591 23.9539L238.8 25.3295H236.259ZM237.881 23.6252L238.88 22.5829V24.705L237.881 23.6252ZM238.88 26.1652L237.548 27.4985L236.344 26.1229H238.88V26.1652ZM237.178 27.7896L236.095 28.954L236.175 26.5783L237.178 27.7896ZM236.053 29.5361L237.511 28.1276L238.716 29.5831H236.053V29.5361ZM237.802 27.7896L238.88 26.7051V29.0526L237.802 27.7896ZM238.88 30.4564L237.511 31.7851L236.217 30.3766H238.88V30.4564ZM237.136 32.1184L235.927 33.2875V33.0386L236.011 30.8696L237.136 32.1184ZM236.011 33.7476L237.417 32.4095L238.622 33.7476H236.011ZM237.717 32.1184L238.88 31.0386V33.3861L237.717 32.1184ZM238.88 34.8274L237.511 36.0341L236.011 34.5363H238.8L238.88 34.5786V34.8274ZM237.136 36.3251L235.763 37.4942L235.889 35.0387L237.136 36.3251ZM235.805 37.9918L237.427 36.6209L238.758 37.9918H235.805ZM237.717 36.3251L238.88 35.3861V37.4707L237.717 36.3251ZM239.672 34.7006L239.798 34.5363H242.583L241.177 36.0341L239.677 34.7429L239.672 34.7006ZM238.88 38.8275L237.3 40.1609L235.927 38.7853H238.88V38.8275ZM236.967 40.452L235.598 41.6164L235.678 39.1609L236.967 40.452ZM235.514 42.161L237.258 40.7525L238.664 42.2502H235.505L235.514 42.161ZM237.591 40.452L238.8 39.3675V41.7431L237.591 40.452ZM238.758 43.0765L237.178 44.4521L235.772 42.992H238.767L238.758 43.0765ZM236.845 44.7432L235.388 46.0344L235.472 43.3676L236.845 44.7432ZM235.514 46.41L237.136 45.0343L238.509 46.41H235.514ZM237.511 44.7432L238.758 43.6165V44.9498L238.716 45.6165V46.0344L237.511 44.7432ZM235.598 42.992L235.472 43.3676L235.514 42.992H235.598ZM238.589 47.2175L237.094 48.5509L235.763 47.2175H238.589ZM236.714 48.8842L235.134 50.2927L235.261 47.4757L236.714 48.8842ZM235.425 50.6777L237.047 49.1753L238.584 50.6777H235.425ZM237.422 48.842L238.711 47.7199L238.669 48.4241V49.5087L238.627 50.0111L237.422 48.842ZM238.359 51.4665L236.906 52.6731L235.697 51.4665H238.359ZM236.484 53.0909L234.905 54.3821L235.111 51.6355L236.484 53.0909ZM235.153 54.8845L236.859 53.4243L238.233 54.8845H235.153ZM237.314 53.0909L238.603 51.9266V52.4665L238.523 54.3445L237.314 53.0909ZM238.481 55.6732L236.902 57.0065L235.65 55.6732H238.481ZM236.484 57.3399L234.652 58.9221L234.862 55.6732L236.484 57.3399ZM235.28 59.0911L236.859 57.7578L238.191 59.0911H235.28ZM237.314 57.3399L238.481 56.4009V56.5652L238.439 56.7765V57.8564L238.397 58.5231L237.314 57.3399ZM238.106 59.8799L236.611 61.0865L235.444 59.8799H238.106ZM236.189 61.5044L234.361 63.0443L234.609 59.8799L236.189 61.5044ZM234.905 63.2978L236.569 61.8893L237.975 63.2978H234.905ZM237.023 61.5044L238.355 60.34L238.312 60.8095V61.1382L238.233 62.7204L237.023 61.5044ZM237.816 64.0866L236.231 65.3777L234.989 64.0866H237.816ZM235.777 65.7111L234.07 67.0867L234.319 64.1289L235.777 65.7111ZM234.403 67.5046L236.189 66.1289L237.441 67.5046H234.403ZM236.569 65.7533L238.148 64.5467C238.106 65.42 238.064 66.3778 237.98 67.2557L236.569 65.7533ZM237.689 68.3356L236.109 69.5422L234.905 68.3356H237.689ZM235.692 69.9225L233.737 71.4624C233.822 70.4624 233.906 69.3778 233.991 68.3356H234.155L235.692 69.9225ZM234.319 71.7113L236.025 70.3028L237.356 71.7113H234.319ZM236.484 69.9601L237.891 68.838C237.848 69.669 237.811 70.5 237.727 71.2934L236.484 69.9601ZM237.023 72.5L235.65 73.6268L234.609 72.5H237.023ZM235.195 74.0024L233.367 75.4109C233.489 74.4719 233.573 73.5 233.616 72.4953H233.822L235.195 74.0024ZM233.616 75.9602L235.528 74.378L237.066 75.9602H233.616ZM235.983 74.0447L237.647 72.7113C237.562 73.6503 237.525 74.6268 237.398 75.5001L235.983 74.0447ZM237.108 76.7537L235.28 78.1622L233.991 76.7537H237.108ZM234.862 78.5002L233.072 79.998H232.95C233.03 78.9604 233.114 77.8758 233.241 76.7912L234.862 78.5002ZM233.925 79.998L235.256 78.9181L236.25 79.998H233.925ZM235.711 78.5895L237.291 77.3359C237.169 78.2138 237.084 79.1294 237 79.9228L235.711 78.5895ZM236.794 80.7961L234.755 82.4628L233.217 80.7961H236.794ZM234.337 82.7962L232.462 84.2938C232.547 83.2938 232.711 82.2562 232.795 81.2139L234.337 82.7962ZM232.552 84.8761L234.67 83.214L236.077 84.7117V84.754L236.034 84.8761H232.552ZM235.13 82.8384L236.752 81.5473C236.588 82.4863 236.461 83.3361 236.283 84.0873L235.13 82.8384ZM239.873 19.1039L240.909 19.9396L241.847 19.1039H239.873ZM241.205 20.2307L242.198 21.0242L242.156 19.3574L241.205 20.2307ZM241.744 21.1697L240.952 20.4607L240.164 21.1697H241.744ZM240.619 20.2307L239.705 19.4373V21.0664L240.619 20.2307ZM239.705 22.0242L241.078 23.3951L242.241 22.0665V22.0242H239.705ZM241.369 23.7284L242.306 24.7285L242.264 22.7707L241.369 23.7284ZM242.306 25.3154L241.102 24.0195L239.813 25.3952H242.306V25.3154ZM240.769 23.6909L239.686 22.5641V24.9116L240.769 23.6909ZM239.77 26.1887L241.144 27.5643L242.264 26.1887H239.77ZM241.434 27.8554L242.433 28.8554L242.391 26.7708L241.434 27.8554ZM242.47 29.4376L241.186 28.1887L239.977 29.6442H242.47V29.4376ZM240.848 27.8554L239.686 26.6863V29.3108L240.848 27.8554ZM239.686 30.4376L241.186 31.8461L242.47 30.4376H239.686ZM241.519 32.1841L242.597 33.1842L242.513 31.062L241.519 32.1841ZM242.597 33.8133L241.223 32.4752L240.061 33.8133H242.597ZM240.891 32.1841L239.686 31.0198V33.5598L240.891 32.1841ZM241.519 36.4096L242.766 37.4942L242.681 35.203L241.519 36.4096ZM242.808 38.0341L241.223 36.7054L239.855 38.0764H242.808V38.0341ZM240.891 36.4096L239.686 35.372V37.621L240.891 36.4096ZM239.77 38.8698L241.392 40.2454L242.766 38.8698H239.77ZM241.725 40.5365L242.972 41.6211L242.845 39.4097L241.725 40.5365ZM242.972 42.161L241.434 40.8276L240.028 42.3254H243.023L242.972 42.161ZM241.097 40.5365L239.723 39.3675V41.7713L241.097 40.5365ZM239.766 43.0765L241.472 44.5367L242.925 43.0765H239.766ZM241.842 44.8278L243.173 45.9921L243.052 43.5789L241.842 44.8278ZM243.173 46.4945L241.514 45.1189L240.141 46.4945H243.173ZM241.181 44.8278L239.775 43.5789V45.0343L239.817 45.701V46.2034L241.181 44.8278ZM240.098 47.2832L241.505 48.6166L242.831 47.2832H240.098ZM241.927 48.95L243.384 50.2411L243.258 47.6589L241.927 48.95ZM243.258 50.7434L241.636 49.2411L240.098 50.7434H243.258ZM241.219 48.9077L239.813 47.6589L239.855 48.4899V49.5744L239.897 50.1988L241.219 48.9077ZM240.281 51.5322L241.739 52.7388L242.944 51.5322H240.281ZM242.156 53.1567L243.563 54.3257L243.436 51.8233L242.156 53.1567ZM243.488 54.9501L241.823 53.49L240.37 54.9501H243.488ZM241.369 53.1567L239.873 51.9078L239.953 52.5323L239.995 54.5323L241.369 53.1567ZM240.202 55.7389L241.702 57.0723L243.033 55.7389H240.202ZM242.156 57.4057L243.863 58.908L243.656 55.9079L242.156 57.4057ZM243.366 59.1569L241.823 57.8235L240.492 59.1569H243.366ZM241.369 57.4057L240.038 56.3211V56.6122L240.08 56.8235V57.9033L240.122 58.6968L241.369 57.4057ZM240.577 59.9456L241.983 61.1523L243.23 59.9456H240.577ZM242.452 61.5701L244.158 62.9786L243.994 60.0207L242.452 61.5701ZM243.783 63.3636L242.119 61.9551L240.666 63.3636H243.783ZM241.664 61.5701L240.206 60.3212L240.248 60.8659V61.1945L240.291 62.9457L241.664 61.5701ZM240.83 64.1524L242.452 65.4435L243.619 64.1524H240.83ZM242.911 65.7768L244.411 67.0679L244.2 64.3636L242.911 65.7768ZM244.2 67.5703L242.494 66.1947L241.167 67.5703H244.2ZM242.039 65.819L240.375 64.4435C240.417 65.4857 240.497 66.4858 240.539 67.4436L242.039 65.819ZM240.956 68.4013L242.536 69.6079L243.741 68.4013H240.956ZM242.995 69.9882L244.823 71.4436C244.702 70.4014 244.617 69.4436 244.575 68.4013H244.533L242.995 69.9882ZM244.369 71.777L242.578 70.3685L241.289 71.777H244.369ZM242.161 70.0258L240.623 68.7769C240.666 69.7159 240.75 70.608 240.792 71.4859L242.161 70.0258ZM241.664 72.5658L243.037 73.6926L244.073 72.5658H241.664ZM243.492 74.0682L245.156 75.4015C245.072 74.4625 244.95 73.5235 244.908 72.5845H244.866L243.492 74.0682ZM245.072 76.026L243.08 74.4437L241.622 76.026H245.072ZM242.662 74.1104L240.872 72.608C240.914 73.6926 241.041 74.7348 241.125 75.7349L242.662 74.1104ZM241.58 76.8194L243.328 78.2279L244.702 76.8194H241.58ZM243.783 78.566L245.616 80.0637C245.489 79.0684 245.405 78.026 245.283 77.026L243.783 78.566ZM244.72 80.0637L243.469 78.9838L242.433 80.0637H244.72ZM243.014 78.6552L241.308 77.2795C241.392 78.2185 241.477 79.1951 241.641 80.0683L243.014 78.6552ZM241.889 80.8618L243.928 82.5286L245.466 80.8618H241.889ZM244.388 82.8619L246.089 84.2375C246.009 83.2985 245.841 82.3595 245.756 81.4205L244.388 82.8619ZM246.089 84.9417L244.012 83.2797L242.47 84.9042L242.513 84.9417H246.089ZM243.553 82.9041L241.847 81.4956C241.973 82.5379 242.138 83.4534 242.316 84.2469L243.553 82.9041ZM229.828 96.6464H234.488L232.533 94.9843L229.828 96.6464ZM234.567 92.8904L232.533 94.1815L231.075 92.8904H234.567ZM233.03 94.6416L235.734 92.8904H236.109L235.612 96.6464H235.444L233.03 94.6416ZM246.052 94.8059L244.092 96.637H249.211L246.052 94.8059ZM243.928 92.8904L246.009 94.097L247.298 92.8904H243.928ZM245.508 94.5148L242.597 92.8904L243.22 96.6464L245.508 94.5148ZM227.583 103.219H234.028L231.45 100.679L227.583 103.219ZM234.82 97.4305L231.45 99.6418L229.247 97.4305H234.82ZM232.116 100.247L235.359 98.1675L234.609 102.792L232.116 100.247ZM247.42 100.581L244.8 103.205H251.705L247.42 100.581ZM244.012 97.4164L247.42 99.5432L249.544 97.4164H244.012ZM246.797 100.168L243.389 98.0408L244.092 102.501L244.134 102.834L246.797 100.168ZM248.92 107.454L246.173 110.163H253.369L248.92 107.454ZM244.927 103.999L248.878 106.374L251.33 103.999H244.927ZM248.17 107.083L244.467 104.83L245.259 109.872L248.17 107.083ZM225.131 110.163H232.406L229.594 107.454L225.131 110.163ZM233.569 103.999L229.659 106.374L227.166 103.999H233.569ZM230.325 107.083L234.314 104.708L233.484 110.079L230.325 107.083ZM246.792 118.121V119.412C247.083 119.534 247.378 119.661 247.627 119.746L246.792 118.121ZM246.459 119.286V117.361L245.92 116.318V118.985L246.459 119.286ZM245.545 118.995V115.746L245.212 115.079H245.006V118.783L245.545 118.995ZM244.631 118.661V115.079H244.13V118.534L244.631 118.661ZM243.755 118.492V115.079H243.216V118.328L243.755 118.492ZM242.817 118.286V115.079H242.278V118.206L242.817 118.286ZM241.945 118.121V115.079H241.406V118.037L241.945 118.121ZM241.073 117.994V115.079H240.53V117.83L241.073 117.994ZM240.197 117.952V115.079H239.658V117.896L240.197 117.952ZM239.283 117.91V115.093H238.744V117.91H239.283ZM238.369 117.91V115.093H237.867V117.91H238.369ZM237.497 117.91V115.093H236.953V117.83L237.497 117.91ZM236.583 117.994V115.079H236.039V118.037L236.583 117.994ZM235.706 118.079V115.079H235.167V118.121L235.706 118.079ZM234.834 118.243V115.079H234.291V118.328L234.834 118.243ZM233.962 118.37V115.084H233.438V118.539L233.962 118.37ZM233.025 118.619V115.079H232.65L232.486 115.37V118.783L233.025 118.619ZM232.111 118.868V115.952L231.614 116.994V118.91L232.111 118.868ZM259.017 138.197L261.183 135.45L256.523 133.366L259.017 138.197ZM261.97 134.53L264.094 131.906H256.125L261.97 134.53ZM264.881 132.699L263.053 135.047L267.005 136.751L264.881 132.699ZM262.261 135.948L259.725 139.155H268.209L267.834 138.404L262.261 135.948ZM255.113 130.657L257.522 128.953L253.528 127.544L255.113 130.657ZM258.478 128.309L260.723 126.769H254.32L258.478 128.309ZM261.928 126.934L259.477 128.643L263.55 130.103L261.928 126.934ZM258.478 129.309L255.942 131.103H263.438L258.478 129.309ZM253.528 125.976H260.559L255.942 124.314L253.528 125.976ZM252.53 125.647L254.944 123.976L250.908 122.52L252.53 125.647ZM255.942 123.272L258.314 121.647H251.409L255.942 123.272ZM259.308 121.981L256.941 123.643L260.93 125.103L259.308 121.981ZM250.078 120.896H258.769L257.977 119.356H249.286L250.078 120.896ZM218.719 138.267L216.516 135.45L221.297 133.366L218.719 138.267ZM215.723 134.511L213.647 131.887H221.588L215.723 134.511ZM212.911 132.723L214.659 135.014L210.872 136.681L212.911 132.723ZM215.452 135.929L218.03 139.136H209.625L210 138.347L215.452 135.929ZM222.684 130.68L220.233 128.934L224.306 127.474L222.684 130.68ZM219.248 128.305L217.045 126.765H223.448L219.248 128.305ZM215.92 126.971L218.292 128.638L214.298 130.098L215.92 126.971ZM219.248 129.319L221.827 131.112H214.327L219.248 129.319ZM224.241 125.985H217.209L221.827 124.323L224.241 125.985ZM257.592 118.572H248.906L247.116 115.074H255.806L257.592 118.572ZM225.248 125.699L222.797 123.985L226.955 122.53L225.248 125.699ZM221.841 123.281L219.469 121.657H226.331L221.841 123.281ZM218.47 122.027L220.842 123.652L216.891 125.06L218.47 122.027ZM227.789 120.905H219.052L219.844 119.239H228.577L227.789 120.905ZM228.952 118.558H220.261L222.089 115.06H230.78L228.952 118.558ZM236.686 95.1486H242.133L244.425 110.144H234.314L235.481 102.482L236.686 95.1486ZM241.969 94.3552H236.77L237.019 92.8575H241.706L241.969 94.3552ZM231.281 119.14V117.769L230.367 119.516C230.662 119.367 230.967 119.242 231.281 119.14ZM249.455 123.225L248.986 122.347C245.861 120.507 242.299 119.544 238.673 119.558C235.334 119.551 232.047 120.382 229.111 121.976L228.694 122.807C231.735 121.072 235.173 120.153 238.673 120.14C242.486 120.13 246.223 121.2 249.455 123.225Z" fill="#DDE3EB"/>
<path fill-rule="evenodd" clip-rule="evenodd" d="M162.234 106.468V109.426H162.609V109.966H162.483C173.091 116.675 167.142 118.755 168.389 120.088C166.355 120.046 164.316 120.046 162.234 120.088H155.995C156.788 118.633 150.633 116.717 161.62 109.966H161.494V109.426H161.869V106.633H161.62C161.391 106.63 161.169 106.557 160.982 106.424C160.796 106.29 160.656 106.103 160.58 105.886C160.678 105.983 160.796 106.059 160.925 106.109C161.054 106.159 161.191 106.182 161.33 106.177C161.632 106.18 161.924 106.063 162.141 105.852C162.359 105.641 162.485 105.353 162.492 105.05C162.488 104.923 162.461 104.797 162.413 104.68C162.529 104.775 162.622 104.896 162.686 105.032C162.75 105.169 162.783 105.318 162.783 105.468C162.785 105.667 162.737 105.863 162.643 106.038C162.548 106.213 162.411 106.361 162.244 106.468H162.234ZM141.525 122.671C141.647 122.422 140.653 122.131 142.463 121.004C144.206 122.131 143.25 122.464 143.461 122.671H141.525ZM141.441 124.586H143.438V123.506H141.441V124.586ZM141.816 124.337H142.191V123.713H141.816V124.337ZM142.73 124.337H143.063V123.713H142.73V124.337ZM142.261 124.337H142.589V123.713H142.261V124.337ZM141.178 123.398H143.714V123.192H141.178V123.398ZM141.178 123.023H143.714V122.816H141.178V123.023ZM141.178 124.938H143.714V124.774H141.178V124.938ZM141.178 125.187H143.714V125.023H141.178V125.187ZM141.384 125.229H143.466V130.394H141.384V125.229ZM143.466 130.732V135.188H141.384V130.732H143.466ZM143.466 135.521V138.272H145.917V125.525L150.037 124.69V138.272H150.202V122.441H150.741V122.272H155.569V120.816H168.544V122.023V122.272H173.531V122.441H173.948V138.272H174.197V124.483L178.191 125.61V138.286H180.895V135.535H182.93V138.286H186.633V133.793H189.961V138.253H194.203V139.375H129.984V138.253H134.353V133.793H137.719V138.253H141.38V135.502L143.466 135.521ZM137.559 112.943C137.348 112.567 138.966 112.112 136.022 110.318C133.148 112.069 134.733 112.609 134.4 112.943H137.559ZM137.644 116.07H134.442V114.318H137.644V116.07ZM137.058 115.694H136.519V114.694H137.058V115.694ZM135.563 115.694H135.023V114.694H135.563V115.694ZM136.312 115.694H135.769V114.694H136.312V115.694ZM138.141 114.234H133.983V113.764H138.141V114.234ZM138.141 113.567H133.983V113.135H138.141V113.567ZM138.141 116.609H133.983V116.192H138.141V116.609ZM138.141 117.027H133.983V116.736H138.141V117.027ZM194.203 142.019H129.984V139.77H194.203V142.019ZM137.723 117.107H134.358V125.483H137.723V117.107ZM186.759 112.943C187.008 112.567 185.353 112.112 188.339 110.318C191.208 112.069 189.628 112.609 189.961 112.943H186.759ZM189.919 116.07V114.318H190.388V113.778H186.225V114.318H186.694V116.07H186.225V117.107H186.642V125.483H189.97V117.107H190.388V116.07H189.919ZM187.298 115.694H187.838V114.694H187.298V115.694ZM188.756 115.694H189.375V114.694H188.794L188.756 115.694ZM188.048 115.694H188.588V114.694H188.048V115.694ZM186.216 113.694H190.378V113.135H186.216V113.694ZM189.966 126.023V133.23H186.638V126.023H189.966ZM156.361 138.272H167.813V123.15H156.375L156.361 138.272ZM182.855 122.689C182.728 122.441 183.727 122.15 181.917 121.023C180.127 122.15 181.125 122.483 180.919 122.689H182.855ZM182.934 124.605H180.938V123.525H182.93L182.934 124.605ZM182.522 124.356H182.189V123.732H182.522V124.356ZM181.645 124.356H181.312V123.732H181.645V124.356ZM182.063 124.356H181.73V123.732H182.063V124.356ZM183.183 123.441H180.647V123.192H183.183V123.441ZM183.183 123.023H180.647V122.816H183.183V123.023ZM183.183 124.938H180.647V124.732H183.183V124.938ZM183.183 125.229H182.934V130.394H180.9V125.229H180.647V125.023H183.183V125.229ZM180.9 130.732V135.188H182.934V130.732H180.9ZM134.363 126.037V133.244H137.728V126.037H134.363ZM148.894 133.953V137.033L146.775 137.075V134.202C146.775 133.662 147.769 132.793 147.811 132.793C147.853 132.793 148.894 133.422 148.894 133.962V133.953ZM148.894 128.788V131.826L146.775 132.079V129.037C146.775 128.45 147.769 127.577 147.811 127.577C147.853 127.577 148.894 128.164 148.894 128.788ZM175.383 133.953V137.033L177.506 137.075V134.202C177.506 133.662 176.466 132.793 176.423 132.793C176.381 132.793 175.383 133.422 175.383 133.962V133.953ZM175.383 128.788V131.826L177.506 132.079V129.037C177.506 128.45 176.466 127.577 176.423 127.577C176.381 127.577 175.383 128.164 175.383 128.788ZM169.148 122.037C169.397 121.567 167.4 121.037 171.061 118.83H170.892V118.666H171.019V117.915H170.892C170.82 117.906 170.751 117.878 170.693 117.834C170.635 117.791 170.589 117.733 170.559 117.666C170.634 117.716 170.722 117.744 170.813 117.746C170.905 117.748 170.995 117.715 171.064 117.653C171.133 117.591 171.176 117.505 171.183 117.412C171.185 117.39 171.183 117.368 171.176 117.347C171.17 117.327 171.159 117.307 171.145 117.29C171.188 117.315 171.222 117.352 171.243 117.396C171.265 117.441 171.273 117.49 171.267 117.539C171.269 117.593 171.258 117.648 171.237 117.698C171.216 117.748 171.185 117.793 171.145 117.83V118.666H171.225V118.83H171.094C174.586 120.957 172.758 121.647 173.091 122.037H169.148ZM163.116 129.455V131.802H165.53V129.347C165.53 127.939 162.248 126.014 162.075 126.014C161.902 126.014 158.625 127.929 158.625 129.347V131.802H160.997V129.455C160.997 129.037 161.995 128.45 162.075 128.45C162.155 128.45 163.116 129.037 163.116 129.455ZM163.116 134.742V137.089H160.997V134.742C160.997 134.272 161.995 133.704 162.075 133.704C162.155 133.704 163.116 134.286 163.116 134.742ZM165.53 132.662H158.625V137.075H157.627V124.398H166.486V137.075H165.548L165.53 132.662ZM152.138 129.995H152.972V131.577H152.138V129.995ZM152.138 135.493H152.972V137.075H152.138V135.493ZM171.225 135.493H172.059V137.075H171.225V135.493ZM171.225 129.995H172.059V131.577H171.225V129.995ZM151.406 123.253H152.156V124.38H151.406V123.253ZM172.2 123.253H172.992V124.38H172.2V123.253ZM170.953 123.253H171.703V124.38H170.953V123.253ZM169.664 123.253H170.414V124.38H169.688L169.664 123.253ZM153.984 123.253H154.734V124.38H153.984V123.253ZM152.695 123.253H153.445V124.38H152.695V123.253ZM170.123 132.502H171.286C171.069 132.627 170.861 132.767 170.662 132.92C170.353 133.144 170.144 133.481 170.081 133.859V137.192H173.283V133.859C173.204 133.477 172.981 133.14 172.659 132.92C172.468 132.757 172.259 132.617 172.036 132.502H173.283V132.169H170.156L170.123 132.502ZM150.994 126.835H152.4C152.113 127.016 151.836 127.212 151.57 127.422C151.249 127.642 151.026 127.979 150.947 128.361V131.69H154.148V128.361C154.07 127.979 153.846 127.642 153.525 127.422C153.276 127.187 152.995 126.99 152.691 126.835H154.148V126.507H150.989L150.994 126.835ZM150.994 132.502H152.198C151.975 132.617 151.766 132.757 151.575 132.92C151.254 133.14 151.03 133.477 150.952 133.859V137.192H154.153V133.859C154.122 133.667 154.051 133.483 153.943 133.321C153.836 133.159 153.695 133.022 153.53 132.92C153.355 132.756 153.16 132.615 152.948 132.502H154.153V132.169H150.994V132.502ZM170.039 126.835H171.539C171.228 126.978 170.945 127.177 170.705 127.422C170.54 127.525 170.399 127.662 170.291 127.824C170.183 127.986 170.112 128.169 170.081 128.361V131.69H173.283V128.361C173.204 127.979 172.981 127.642 172.659 127.422C172.393 127.212 172.116 127.016 171.83 126.835H173.161V126.507H170.039V126.835ZM153.239 117.257C153.282 117.282 153.317 117.318 153.339 117.363C153.36 117.407 153.368 117.457 153.361 117.506C153.363 117.561 153.354 117.615 153.332 117.665C153.311 117.716 153.28 117.761 153.239 117.797V118.633H153.361V118.797H152.991V118.633H153.113V117.882H152.991C152.864 117.882 152.738 117.755 152.653 117.633C152.73 117.678 152.817 117.706 152.906 117.713C152.999 117.716 153.09 117.683 153.16 117.621C153.229 117.559 153.273 117.472 153.281 117.379C153.284 117.357 153.281 117.335 153.274 117.314C153.267 117.293 153.255 117.273 153.239 117.257ZM153.155 118.797C156.647 120.924 154.861 121.614 155.152 122.004H151.242C151.533 121.535 149.494 121.004 153.155 118.797Z" fill="#DDE3EB"/>
<path fill-rule="evenodd" clip-rule="evenodd" d="M208.27 76.8523H207.525V71.5188L207.441 71.6033L207.314 71.5188V73.2278L207.15 73.0212L206.986 73.3123L206.817 73.6034L206.611 73.3123L206.442 73.0212L206.236 73.3123L206.067 73.6034L205.861 73.3123L205.697 73.0212L205.486 73.3123L205.322 73.6034L205.153 73.3123L204.947 73.0212L204.778 73.3123L204.572 73.6034L204.403 73.3123L204.197 73.0212L204.033 73.3123L203.864 73.6034L203.658 73.3123L203.489 73.0212L203.283 73.3123L203.114 73.6034L202.908 73.3123L202.744 73.0212L202.533 73.3123L202.369 73.6034L202.2 73.3123L201.994 73.0212L201.825 73.3123L201.619 73.6034L201.455 73.3123L201.244 73.0212L201.08 73.3123L200.911 73.6034L200.705 73.3123L200.536 73.0212L200.33 73.3123L200.161 73.6034L199.955 73.3123L199.791 73.0212L199.58 73.3123L199.416 73.6034L199.247 73.3123L199.041 73.0212L198.872 73.3123L198.666 73.6034L198.502 73.3123L198.291 73.0212L198.127 73.3123L197.958 73.6034L197.752 73.3123L197.588 73.0212L197.377 73.3123L197.208 73.6034L197.002 73.3123L196.837 73.0212L196.627 73.3123L196.462 73.6034L196.298 73.3123L196.088 73.0212L195.919 73.3123L195.713 73.6034L195.548 73.3123L195.338 73.0212L195.173 73.3123L195.005 73.6034L194.798 73.3123L194.634 73.0212L194.466 73.27V71.5188L194.339 71.6033L194.217 71.5188V76.8523H193.509V74.7678L193.425 74.8945L193.303 74.7678V92.0547H208.481V74.7678L208.355 74.8945L208.27 74.7678V76.8523ZM208.739 142H192.656V132.385H208.748L208.739 142ZM207.159 131.629V122.628H206.494V131.629H205.992V122.628H205.289V131.629H204.788V122.628H204.122V131.629H203.583V122.628H202.917V131.629H202.378V122.628H201.713V131.629H201.169V122.628H200.503V131.629H199.964V122.628H199.298V131.629H198.802V122.628H198.094V131.629H197.597V122.628H196.927V131.629H196.388V122.628H195.722V131.629H195.183V122.628H194.531V131.629H193.987V113.008H207.712V131.629H207.159ZM206.494 122.131H207.159V113.426H206.494V122.131ZM194.517 122.131H195.183V113.426H194.531L194.517 122.131ZM195.722 122.131H196.388V113.426H195.722V122.131ZM196.927 122.131H197.597V113.426H196.927V122.131ZM198.094 122.131H198.802V113.426H198.094V122.131ZM199.298 122.131H199.964V113.426H199.298V122.131ZM200.503 122.131H201.169V113.426H200.503V122.131ZM201.713 122.131H202.378V113.426H201.713V122.131ZM202.917 122.131H203.583V113.426H202.917V122.131ZM204.122 122.131H204.788V113.426H204.122V122.131ZM205.289 122.131H205.992V113.426H205.289V122.131ZM194.85 71.0634L194.348 70.6455L193.88 71.0634L194.348 71.561L194.85 71.0634ZM207.909 71.0634L207.441 70.6455L206.972 71.0634L207.441 71.561L207.909 71.0634ZM208.823 74.3124L208.355 73.8945L207.942 74.3124L208.355 74.81L208.823 74.3124ZM193.852 74.3124L193.434 73.8945L192.966 74.3124L193.434 74.81L193.852 74.3124ZM194.227 70.6878V70.4108H194.475V70.7019L194.348 70.5751L194.227 70.6878ZM207.323 70.6878V70.4108H207.534V70.7019L207.45 70.5751L207.323 70.6878ZM193.312 73.9367V73.6034H193.519V73.8945L193.434 73.81L193.312 73.9367ZM208.28 73.8945V73.6034H208.491V73.9367L208.364 73.81L208.28 73.8945ZM197.634 68.2605L195.638 73.2184L195.68 73.2606L195.722 73.3452L196.097 72.8005L196.388 73.27L196.472 73.3546L196.556 73.27L196.847 72.8005L197.217 73.3874L197.302 73.2606L197.597 72.763L197.845 73.2606L197.967 73.3874L198.3 72.8005L198.633 73.27L198.675 73.3546L198.759 73.27L199.05 72.8005L199.341 73.27L199.425 73.3546L199.509 73.27L199.8 72.8005L200.091 73.27L200.17 73.3968L200.255 73.27L200.545 72.7724L200.798 73.27L200.92 73.3968L200.963 73.27L201.253 72.8005L201.586 73.27L201.628 73.3546L202.003 72.8099L202.294 73.2794L202.378 73.364L202.462 73.2794L202.753 72.8099L203.123 73.3968L203.208 73.27L203.498 72.7724L203.789 73.27L203.873 73.3968L204.206 72.8099L204.539 73.2794L204.581 73.364L204.956 72.8193L205.247 73.2888L205.331 73.3734L205.416 73.2888L205.706 72.8193L206.077 73.364L206.119 73.2794L206.161 73.2372L204.164 68.2792L197.634 68.2605ZM198.3 71.6362L197.888 70.9272L197.761 70.7629L197.217 71.6362L197.386 71.7207L197.761 71.0962L198.094 71.7207L198.3 71.6362ZM201.422 69.9695L201.005 69.2182L200.92 69.0539L200.381 69.9695L200.545 70.054L200.92 69.4249L201.253 70.054L201.422 69.9695ZM203.498 69.9695L203.03 69.2182L202.945 69.0539L202.406 69.9695L202.57 70.054L202.945 69.4249L203.278 70.054L203.498 69.9695ZM204.539 71.6362L204.07 70.9272L203.986 70.7629L203.484 71.6362L203.611 71.7207L203.986 71.0962L204.356 71.7207L204.539 71.6362ZM202.42 71.6362L202.045 70.9272L201.919 70.7629L201.38 71.6362L201.544 71.7207L201.919 71.0962L202.294 71.7207L202.42 71.6362ZM200.339 71.6362L199.964 70.9272L199.842 70.7629L199.298 71.6362L199.467 71.7207L199.842 71.0962L200.17 71.7207L200.339 71.6362ZM199.552 69.9695L199.172 69.2182L199.05 69.0539L198.511 69.9695L198.675 70.054L199.05 69.4249L199.383 70.054L199.552 69.9695ZM196.345 74.3452H194.85V76.3828H196.345V74.3452ZM206.742 74.3452H205.289V76.3828H206.742V74.3452ZM204.708 74.3452H203.166V76.3828H204.708V74.3452ZM202.627 74.3452H201.094V76.3828H202.631L202.627 74.3452ZM200.545 74.3452H199.008V76.3828H200.545V74.3452ZM198.427 74.3452H196.927V76.3828H198.427V74.3452ZM201.502 55.6404H200.297V54.7671H201.502V55.6404ZM197.597 62.3495L197.128 61.88L196.659 62.3495L197.128 62.819L197.597 62.3495ZM205.097 62.3495L204.628 61.88L204.159 62.3495L204.628 62.819L205.097 62.3495ZM204.389 64.1383L204.225 64.4716L204.061 64.805H204.019L203.892 64.4716L203.686 64.1383L203.475 64.4716L203.348 64.805L203.184 64.4716L202.978 64.1383L202.809 64.4716L202.645 64.805L202.477 64.4716L202.313 64.1383L202.102 64.4716L201.938 64.805L201.769 64.4716L201.605 64.1383L201.398 64.4716L201.272 64.805H201.23L201.066 64.4716L200.897 64.1383L200.691 64.4716L200.564 64.805H200.522L200.358 64.4716L200.189 64.1383L199.983 64.4716L199.856 64.805H199.819L199.65 64.4716L199.486 64.1383L199.275 64.4716L199.148 64.805H199.111L198.942 64.4716L198.736 64.1383L198.567 64.4716L198.403 64.805L198.277 64.4716L198.07 64.1383L197.864 64.4716L197.737 64.805H197.695L197.573 64.4716L197.362 64.1383L197.236 64.3448V62.8988L197.114 62.9786L196.988 62.8988V64.8143V68.0211H204.764V64.8143V62.8988L204.642 62.9786L204.516 62.8988V64.3542L204.389 64.1383ZM200.897 54.2788C200.897 54.4056 200.855 54.5323 200.855 54.6544H200.897V54.2788ZM200.733 55.7812C200.264 58.6545 198.942 61.1945 198.028 63.9035V63.8378L198.361 64.42L198.403 64.5045L198.736 63.8378L199.069 64.42L199.111 64.5045L199.148 64.42L199.486 63.8378L199.819 64.5045L199.856 64.42L200.189 63.8378L200.522 64.5045L200.564 64.42L200.897 63.8378L201.187 64.42L201.23 64.5045L201.272 64.42L201.605 63.8378L201.938 64.5045L201.98 64.42L202.313 63.8378L202.645 64.5045L202.687 64.42L203.02 63.8378L203.269 64.42L203.348 64.5045L203.391 64.42L203.686 63.8378C203.766 63.711 201.145 56.9221 200.981 55.7577L200.733 55.7812ZM201.398 59.6968L200.981 59.0301L200.897 58.8189L200.358 59.6968L200.522 59.8189L200.897 59.1945L201.23 59.8189L201.398 59.6968ZM199.819 63.2791L199.444 62.5279L199.317 62.3636L198.778 63.3026L198.942 63.3871L199.317 62.7157L199.65 63.3871L199.819 63.2791ZM201.398 63.2791L200.981 62.5279L200.897 62.3636L200.358 63.3026L200.522 63.3871L200.897 62.7157L201.23 63.3871L201.398 63.2791ZM202.978 63.2791L202.561 62.5279L202.439 62.3636L201.895 63.3026L202.102 63.3871L202.439 62.7157L202.809 63.3871L202.978 63.2791ZM200.48 61.5701L200.067 60.8189L199.941 60.6546L199.444 61.5936L199.608 61.6781L199.941 61.0114L200.316 61.6781L200.48 61.5701ZM202.313 61.5701L201.895 60.8189L201.811 60.6546L201.272 61.5936L201.398 61.6781L201.811 61.0114L202.144 61.6781L202.313 61.5701ZM196.988 61.8612V61.5701H197.236V61.8612L197.114 61.7392L196.988 61.8612ZM204.516 61.8612V61.5701H204.764V61.8612L204.642 61.7392L204.516 61.8612ZM198.567 65.4435H197.405V67.5281H198.567V65.4435ZM204.347 65.4435H203.184V67.5281H204.375L204.347 65.4435ZM202.894 65.4435H201.727V67.5281H202.894V65.4435ZM201.487 65.4435H200.325V67.5281H201.487V65.4435ZM200.034 65.4435H198.867V67.5281H200.034V65.4435ZM206.564 111.971H207.23V102.473H206.564V111.971ZM194.545 111.971H195.211V102.473H194.531L194.545 111.971ZM195.75 111.971H196.406V102.473H195.741L195.75 111.971ZM196.955 111.971H197.62V102.473H196.955V111.971ZM198.164 111.971H198.825V102.473H198.164V111.971ZM199.369 111.971H200.034V102.473H199.369V111.971ZM200.531 111.971H201.239V102.473H200.531V111.971ZM201.736 111.971H202.406V102.473H201.736V111.971ZM202.945 111.971H203.611V102.473H202.969L202.945 111.971ZM204.15 111.971H204.844V102.473H204.178L204.15 111.971ZM205.359 111.971H206.02V102.473H205.359V111.971ZM206.564 101.975H207.23V93.2284H206.564V101.975ZM194.545 101.975H195.211V93.2284H194.531L194.545 101.975ZM195.75 101.975H196.406V93.2284H195.741L195.75 101.975ZM196.955 101.975H197.62V93.2284H196.955V101.975ZM198.164 101.975H198.825V93.2284H198.164V101.975ZM199.369 101.975H200.034V93.2284H199.369V101.975ZM200.531 101.975H201.239V93.2284H200.531V101.975ZM201.736 101.975H202.406V93.2284H201.736V101.975ZM202.945 101.975H203.611V93.2284H202.969L202.945 101.975ZM204.15 101.975H204.844V93.2284H204.178L204.15 101.975ZM205.359 101.975H206.02V93.2284H205.359V101.975ZM207.703 92.8529H194.062V112.346H207.745L207.703 92.8529ZM195.769 90.7683H195V91.5382H195.792L195.769 90.7683ZM206.705 90.7683H205.917V91.5382H206.719L206.705 90.7683ZM205.706 90.7683H204.919V91.5382H205.706V90.7683ZM204.708 90.7683H203.92V91.5382H204.708V90.7683ZM203.709 90.7683H202.969V91.5382H203.756L203.709 90.7683ZM202.716 90.7683H201.923V91.5382H202.716V90.7683ZM201.713 90.7683H200.925V91.5382H201.713V90.7683ZM200.719 90.7683H199.927V91.5382H200.719V90.7683ZM199.72 90.7683H198.928V91.5382H199.72V90.7683ZM198.722 90.7683H197.972V91.5382H198.722V90.7683ZM197.784 90.7683H196.992V91.5382H197.812L197.784 90.7683ZM196.786 90.7683H195.994V91.5382H196.786V90.7683ZM200.902 84.9371C200.822 84.9371 200.737 84.8948 200.653 84.8948L200.363 85.1906C200.32 85.3549 200.32 85.477 200.236 85.5615C200.206 85.5823 200.17 85.5935 200.133 85.5935C200.096 85.5935 200.06 85.5823 200.03 85.5615C199.971 85.4706 199.902 85.387 199.823 85.3127C199.739 85.2704 199.739 85.1906 199.823 85.1061C199.912 85.0228 200.03 84.9774 200.152 84.9794L200.484 84.6883C200.405 84.646 200.405 84.5192 200.405 84.4394V84.3127L197.409 81.106V81.0215H197.489C197.489 80.9792 197.531 80.9792 197.531 81.0215L200.695 83.9793C200.757 83.9415 200.83 83.9266 200.902 83.9371C201.003 83.9448 201.102 83.9735 201.192 84.0216L201.694 83.5521C201.672 83.5509 201.651 83.5417 201.635 83.526C201.62 83.5104 201.611 83.4896 201.609 83.4676C201.59 83.458 201.573 83.4429 201.561 83.4243C201.549 83.4056 201.543 83.384 201.543 83.3619C201.543 83.3399 201.549 83.3183 201.561 83.2996C201.573 83.2809 201.59 83.2659 201.609 83.2563C201.757 83.1617 201.932 83.1187 202.106 83.1342L202.191 83.0497V82.8384H202.481V83.092H202.317L202.191 83.214C202.191 83.4253 202.191 83.6319 202.106 83.7164C202.068 83.7373 202.025 83.7484 201.982 83.7484C201.939 83.7484 201.896 83.7373 201.858 83.7164L201.816 83.6741L201.319 84.1718C201.366 84.2489 201.394 84.3355 201.403 84.4253C201.403 84.5051 201.361 84.5474 201.361 84.5896C201.509 84.8131 201.729 84.9789 201.984 85.0591C201.996 85.0591 202.006 85.0636 202.014 85.0715C202.022 85.0794 202.027 85.0902 202.027 85.1014C202.027 85.1437 202.027 85.1859 201.984 85.1859C201.942 85.1859 201.9 85.2235 201.9 85.2657C201.9 85.308 201.858 85.308 201.858 85.3502C201.854 85.3823 201.839 85.4121 201.816 85.4348C201.731 85.4348 201.694 85.4347 201.694 85.4723C201.672 85.4734 201.651 85.4827 201.635 85.4983C201.62 85.5139 201.611 85.5348 201.609 85.5568H201.562C201.52 85.5991 201.52 85.5568 201.478 85.5568C201.4 85.2918 201.222 85.0678 200.981 84.9324L200.902 84.9371ZM200.78 80.106H200.484L200.447 79.566H200.78V80.106ZM200.236 80.1482C200.114 80.1905 199.987 80.1905 199.861 80.2327L199.739 79.6881C199.89 79.6343 200.048 79.6057 200.208 79.6036L200.236 80.1482ZM199.655 80.2703C199.567 80.3232 199.467 80.3524 199.364 80.3548L199.153 79.8571L199.533 79.7303L199.655 80.2703ZM199.186 80.4393C199.068 80.513 198.94 80.5699 198.806 80.6083L198.516 80.1388C198.659 80.0424 198.817 79.971 198.984 79.9275L199.186 80.4393ZM198.6 80.7304C198.528 80.8008 198.444 80.8579 198.352 80.8994L198.019 80.4299C198.138 80.3749 198.249 80.3055 198.352 80.2233L198.6 80.7304ZM198.188 81.0215C198.128 81.0903 198.057 81.1476 197.977 81.1905L198.061 81.2703L198.225 81.106H198.267L198.309 81.0637C198.436 80.9792 198.516 80.8994 198.642 80.8149H198.684L199.556 82.3548C199.483 82.3885 199.413 82.431 199.35 82.4816L199.434 82.5661C199.84 82.2236 200.358 82.0444 200.887 82.0637C201.472 82.0738 202.033 82.2957 202.467 82.6882H202.636C202.515 82.556 202.374 82.4435 202.219 82.3548L203.048 80.8149H203.091L203.559 81.1482L203.602 81.1905C203.69 81.2823 203.788 81.3657 203.892 81.4393C203.992 81.5738 204.104 81.6994 204.225 81.8149V81.8572L204.267 81.8947C204.349 81.9986 204.419 82.1122 204.473 82.2328L202.978 83.1061C202.894 82.9793 202.767 82.815 202.687 82.6882V82.8948C203.056 83.3254 203.262 83.8722 203.269 84.4394C203.256 85.0767 203.003 85.6857 202.561 86.1437C202.113 86.5783 201.52 86.831 200.897 86.8527C200.261 86.8403 199.653 86.587 199.195 86.1437C198.968 85.9223 198.789 85.6571 198.667 85.3642C198.545 85.0712 198.484 84.7567 198.488 84.4394C198.475 83.9248 198.652 83.4235 198.984 83.0309L198.9 82.9464C198.858 82.9886 198.816 83.0732 198.778 83.1155L197.278 82.2421C197.362 82.0683 197.475 81.9097 197.611 81.7726V81.7304C197.653 81.7304 197.653 81.6882 197.695 81.6459L197.611 81.5614C197.573 81.6036 197.573 81.6459 197.527 81.6882L197.058 81.3125C197.131 81.2796 197.189 81.2212 197.222 81.1482V80.9417L197.348 80.8994C197.391 80.8149 197.47 80.8149 197.559 80.8149C197.647 80.7336 197.745 80.6641 197.85 80.6083L198.188 81.0215ZM197.475 81.7726H197.437L197.062 81.4393L197.475 81.7304V81.7726ZM197.395 81.8572C197.301 81.9513 197.229 82.0651 197.184 82.1905L196.936 82.0215L196.688 81.8947C196.762 81.7657 196.845 81.6419 196.936 81.5239H196.978L197.395 81.8572ZM197.062 82.3548C197.013 82.4487 196.971 82.546 196.936 82.646L196.397 82.3971C196.439 82.3126 196.523 82.1905 196.561 82.106L197.062 82.3548ZM196.814 82.8525L196.688 83.2281L196.191 83.0638H196.148C196.191 82.8947 196.275 82.7727 196.313 82.5943L196.814 82.8525ZM196.645 83.4488C196.612 83.5441 196.583 83.6413 196.561 83.7399L196.022 83.6553C196.064 83.5333 196.064 83.4065 196.106 83.2798V83.322L196.645 83.4488ZM196.561 83.8244L196.064 83.7821V83.7399L196.561 83.8244ZM196.561 83.9464C196.53 84.0691 196.517 84.1957 196.523 84.3221H195.98C195.972 84.1644 195.986 84.0064 196.022 83.8526L196.561 83.9464ZM196.523 84.5709C196.517 84.6694 196.53 84.7683 196.561 84.862L195.98 84.9042V84.5709H196.523ZM196.561 85.0732C196.603 85.2 196.603 85.3643 196.645 85.4864L196.106 85.6132C196.057 85.4613 196.028 85.3033 196.022 85.1437L196.561 85.0732ZM196.688 85.6977L196.814 85.9465L196.275 86.1531V86.1953L196.148 85.8197H196.191L196.688 85.6977ZM196.856 86.0733L196.388 86.2799V86.2376L196.856 86.0733ZM196.894 86.1531C196.931 86.2859 196.988 86.4124 197.062 86.5287L196.561 86.8245C196.481 86.6977 196.439 86.5287 196.355 86.4066L196.397 86.3644L196.894 86.1531ZM197.184 86.74C197.216 86.8258 197.275 86.8985 197.353 86.9465L196.856 87.2799C196.792 87.1878 196.735 87.0904 196.688 86.9888L197.184 86.74ZM197.475 87.1108C197.564 87.2376 197.644 87.3222 197.728 87.4442L197.353 87.8621H197.344C197.259 87.74 197.138 87.6132 197.053 87.4865L197.475 87.1108ZM197.897 87.6132C197.977 87.6555 198.019 87.74 198.103 87.7776L197.77 88.2471H197.728C197.644 88.1625 197.564 88.078 197.475 87.9982L197.897 87.6132ZM198.267 87.9466C198.394 88.0311 198.478 88.0687 198.6 88.1532L198.352 88.6555H198.309C198.176 88.5692 198.051 88.4719 197.934 88.3644L198.267 87.9466ZM198.806 88.28L199.059 88.4067L198.848 88.9044C198.728 88.8723 198.615 88.8165 198.516 88.7401L198.806 88.28ZM199.275 88.4865L199.65 88.6133L199.528 89.1532L199.059 89.0311L199.275 88.4865ZM199.744 88.6555L199.659 89.125H199.617L199.744 88.6555ZM199.866 88.6978C199.95 88.6978 200.077 88.7401 200.156 88.7401L200.077 89.2799C199.95 89.2799 199.828 89.2377 199.744 89.2377L199.866 88.6978ZM200.241 88.7776H200.283L200.198 89.2471L200.241 88.7776ZM200.367 88.7776C200.489 88.7776 200.658 88.8198 200.784 88.8198V89.3645C200.616 89.3714 200.448 89.3572 200.283 89.3222L200.367 88.7776ZM200.991 88.8198C201.089 88.8265 201.188 88.8121 201.281 88.7776L201.366 89.3222V89.3645H200.991V88.8198ZM201.53 88.7776C201.656 88.74 201.778 88.74 201.905 88.6978L202.031 89.2377C201.905 89.2799 201.736 89.28 201.562 89.3222L201.53 88.7776ZM202.031 88.6555L202.153 89.125H202.111L202.031 88.6555ZM202.111 88.6133C202.213 88.5994 202.312 88.5709 202.406 88.5287L202.613 89.0311V89.0687C202.507 89.1164 202.395 89.1451 202.28 89.1532L202.111 88.6133ZM202.486 88.4865H202.528L202.697 88.956L202.486 88.4865ZM202.613 88.449C202.728 88.4013 202.839 88.3448 202.945 88.28L203.236 88.7495V88.787C203.089 88.8403 202.949 88.9112 202.819 88.9982V88.956L202.613 88.449ZM203.152 88.1532C203.243 88.113 203.327 88.0574 203.4 87.9888L203.733 88.4583C203.653 88.5381 203.527 88.5804 203.442 88.6649L203.152 88.1532ZM203.569 87.8621C203.674 87.7899 203.772 87.7064 203.859 87.6132L204.277 87.9888C204.161 88.1102 204.036 88.2218 203.902 88.3222L203.569 87.8621ZM204.037 87.4442C204.117 87.3644 204.159 87.2799 204.202 87.2376L204.67 87.571C204.614 87.6649 204.543 87.7489 204.459 87.8198L204.037 87.4442ZM204.366 87.0311C204.46 86.9369 204.532 86.823 204.577 86.6977L205.073 86.9888C205.001 87.1339 204.918 87.2735 204.825 87.4066H204.783L204.366 87.0311ZM204.703 86.5287C204.741 86.4442 204.783 86.3644 204.825 86.2799L205.369 86.4864C205.296 86.59 205.239 86.7039 205.2 86.8245H205.158L204.703 86.5287ZM204.909 86.0592C204.968 85.9406 205.009 85.8141 205.031 85.6836L205.575 85.8057H205.617C205.549 85.9575 205.492 86.1145 205.448 86.2752L204.909 86.0592ZM205.116 85.4723C205.116 85.3925 205.158 85.2657 205.158 85.1859L205.739 85.2657C205.702 85.3503 205.702 85.4723 205.659 85.5991L205.116 85.4723ZM205.2 85.0591L205.702 85.1437H205.659L205.2 85.0591ZM205.2 84.9324C205.235 84.8104 205.249 84.6835 205.242 84.5568H205.781C205.789 84.7145 205.775 84.8725 205.739 85.0263L205.2 84.9324ZM205.242 84.308C205.249 84.2228 205.234 84.1373 205.2 84.0591L205.781 83.9746V84.308H205.242ZM205.2 83.9324V83.8901L205.702 83.8479V83.8901L205.2 83.9324ZM205.2 83.8103C205.158 83.6835 205.158 83.5615 205.116 83.4347L205.659 83.3079V83.2657C205.706 83.4292 205.733 83.5979 205.739 83.768L205.2 83.8103ZM205.073 83.2234C205.04 83.1237 204.999 83.0264 204.952 82.9324L205.491 82.7257C205.539 82.8307 205.568 82.9437 205.575 83.0591L205.073 83.2234ZM204.909 82.8103L205.378 82.599V82.6413L204.909 82.8103ZM204.867 82.7257C204.828 82.5941 204.773 82.468 204.703 82.3502L205.172 82.1013H205.214C205.298 82.2281 205.341 82.3924 205.425 82.5192L204.867 82.7257ZM204.577 82.1858L204.45 81.937L204.867 81.5989C204.949 81.6863 205.018 81.7842 205.073 81.89L204.577 82.1858ZM204.286 81.7163C204.193 81.6287 204.109 81.5311 204.037 81.4252L204.45 81.0497C204.538 81.1686 204.635 81.2801 204.741 81.383V81.4252L204.286 81.7163ZM203.869 81.2984C203.821 81.2111 203.75 81.1394 203.662 81.0919L203.995 80.6224C204.08 80.7069 204.202 80.7914 204.286 80.8759L203.869 81.2984ZM203.578 81.0074L203.911 80.6318L203.62 81.0074H203.578ZM203.494 80.9651C203.367 80.8853 203.288 80.8008 203.161 80.7163L203.452 80.2468L203.827 80.5003L203.494 80.9651ZM202.955 80.6318C202.88 80.5653 202.797 80.5099 202.706 80.4675L202.913 79.9651C203.031 80.0043 203.144 80.0612 203.245 80.1341L202.955 80.6318ZM202.486 80.3829L202.111 80.2562L202.28 79.7162C202.406 79.7585 202.57 79.8431 202.697 79.8853L202.486 80.3829ZM201.905 80.2186C201.82 80.1764 201.698 80.1764 201.614 80.1341L201.698 79.5895C201.82 79.6318 201.947 79.6317 202.031 79.674L201.905 80.2186ZM201.53 80.1341H201.487L201.572 79.6318L201.53 80.1341ZM201.408 80.1341C201.272 80.0992 201.131 80.085 200.991 80.0919V79.5519H201.487L201.408 80.1341ZM198.867 80.7163C198.994 80.6318 199.078 80.5942 199.205 80.5097H199.242L199.369 80.4675C199.495 80.4252 199.575 80.383 199.702 80.3407H199.744L199.828 80.2985H199.908C200.034 80.2562 200.156 80.2562 200.283 80.2186H200.489V80.1764H200.784V81.9276C200.421 81.9516 200.067 82.0507 199.744 82.2187L198.867 80.7163ZM200.991 80.1764C201.117 80.1695 201.244 80.1838 201.366 80.2186H201.572C201.671 80.2376 201.768 80.2643 201.862 80.2985H201.905L202.031 80.3407H202.073L202.448 80.4675V80.5097H202.486C202.528 80.5097 202.57 80.552 202.613 80.552L202.655 80.5942C202.739 80.5942 202.819 80.674 202.903 80.7163L202.031 82.2187C201.706 82.0561 201.353 81.9573 200.991 81.9276V80.1764ZM204.609 82.4253C204.681 82.5421 204.737 82.6686 204.773 82.8009L204.816 82.8384C204.816 82.8807 204.816 82.923 204.858 82.923V82.9652C204.9 83.092 204.942 83.2563 204.984 83.4347C205.069 83.7404 205.11 84.0565 205.106 84.3737H203.358C203.345 84.0131 203.261 83.6587 203.109 83.3314L204.609 82.4253ZM205.106 84.5474C205.113 84.6741 205.099 84.801 205.064 84.923C205.056 85.0929 205.029 85.2613 204.984 85.4254C204.901 85.7849 204.775 86.1332 204.609 86.4629L203.067 85.5897C203.23 85.264 203.328 84.9102 203.358 84.5474H205.106ZM204.483 86.632C204.429 86.7647 204.359 86.8907 204.277 87.0076L204.192 87.0874L204.15 87.1296C204.07 87.2142 204.028 87.2987 203.986 87.341L203.902 87.3832L203.859 87.463L203.775 87.5053H203.817C203.714 87.5801 203.617 87.6633 203.527 87.7541H203.484V87.7964L203.442 87.8386C203.32 87.9231 203.236 87.9654 203.109 88.0452L202.238 86.5052C202.387 86.4073 202.526 86.2956 202.655 86.1718C202.787 86.0525 202.899 85.9131 202.987 85.7587L204.483 86.632ZM202.903 88.1719C202.797 88.2367 202.685 88.2932 202.57 88.3409V88.2987L202.486 88.3409L202.448 88.3832L202.364 88.4255C202.275 88.4325 202.188 88.4598 202.111 88.5053H202.073C202.031 88.5053 201.947 88.5475 201.905 88.5475H201.862C201.711 88.5973 201.553 88.6258 201.394 88.6321H201.309C201.202 88.6668 201.089 88.6811 200.977 88.6743V86.9231C201.338 86.8912 201.691 86.7925 202.017 86.632L202.903 88.1719ZM200.784 88.6743C200.658 88.6815 200.531 88.6672 200.409 88.6321H200.198C200.1 88.609 200.003 88.5808 199.908 88.5475C199.694 88.4971 199.486 88.4279 199.284 88.3409H199.242C199.12 88.2987 198.994 88.2142 198.867 88.1719L199.744 86.632C200.07 86.7925 200.423 86.8912 200.784 86.9231V88.6743ZM198.661 88.0452C198.545 87.984 198.434 87.915 198.328 87.8386H198.37L198.328 87.7964L198.206 87.7541V87.7165H198.164C198.122 87.632 198.038 87.5898 197.953 87.5053H197.995L197.953 87.463L197.873 87.3832L197.789 87.341C197.696 87.2523 197.611 87.1547 197.536 87.0498L197.456 86.9231L197.414 86.8808L197.288 86.632H197.245L198.788 85.7587C198.888 85.9155 199.013 86.055 199.158 86.1718C199.288 86.3063 199.428 86.4318 199.575 86.5475L198.637 88.0452H198.661ZM197.166 86.4629C197.084 86.3368 197.027 86.1968 196.997 86.0498H196.955C196.912 85.9231 196.875 85.7587 196.833 85.632C196.799 85.5686 196.784 85.4969 196.791 85.4254C196.707 85.1402 196.665 84.8446 196.664 84.5474H198.412C198.424 84.9132 198.524 85.2708 198.703 85.5897L197.166 86.4629ZM196.664 84.3408C196.657 84.2002 196.671 84.0594 196.706 83.923V83.7164C196.748 83.6319 196.748 83.5098 196.791 83.4253C196.791 83.3408 196.791 83.2985 196.833 83.2563V83.214C196.867 83.1008 196.908 82.9895 196.955 82.8807L196.997 82.8009V82.7586C196.997 82.7164 197.039 82.7164 197.039 82.6741L197.166 82.4253L198.703 83.2985C198.524 83.6174 198.424 83.975 198.412 84.3408H196.664ZM206.508 78.7585H200.883C202.378 78.7659 203.809 79.3664 204.864 80.4285C205.918 81.4906 206.509 82.9277 206.508 84.4253V78.7585ZM202.097 79.6975H202.139L202.017 80.1998L202.097 79.6975ZM204.262 80.9886H204.305L203.972 81.3642L203.93 81.3219L204.262 80.9886ZM204.305 87.8198L204.262 87.8621L203.93 87.4865H203.972L204.305 87.8198ZM197.48 87.8621L197.442 87.8198L197.775 87.4865H197.817L197.48 87.8621ZM199.603 79.6975H199.645L199.73 80.1998L199.603 79.6975ZM204.759 81.491L204.342 81.8243V81.782L204.759 81.491ZM198.98 88.9044L198.937 88.8621L199.144 88.3926L198.98 88.9044ZM197.859 88.2377V88.1954L198.192 87.8198L197.859 88.2377ZM197.958 80.4956V80.4534L198.248 80.8712V80.9088L197.958 80.4956ZM199.041 79.8665L199.247 80.336L199.205 80.3782L199.041 79.8665ZM200.869 78.7022H195.216V84.369C195.217 82.8672 195.813 81.4273 196.872 80.365C197.932 79.3026 199.369 78.7046 200.869 78.7022ZM195.216 84.369V90.0312H200.869C199.37 90.0299 197.933 89.433 196.873 88.3714C195.813 87.3098 195.217 85.8703 195.216 84.369ZM200.869 90.0312H206.494V84.369C206.494 85.8658 205.902 87.3018 204.848 88.3628C203.794 89.4239 202.363 90.0237 200.869 90.0312ZM200.869 89.7401C199.447 89.7376 198.085 89.1709 197.08 88.1642C196.075 87.1574 195.509 85.7927 195.506 84.369C195.517 82.9514 196.087 81.5956 197.091 80.5967C198.096 79.5978 199.453 79.0367 200.869 79.0355C201.577 79.033 202.279 79.171 202.933 79.4416C203.588 79.7122 204.182 80.1099 204.683 80.6119C205.183 81.1139 205.579 81.7101 205.848 82.3663C206.117 83.0224 206.254 83.7254 206.25 84.4347C206.249 85.8524 205.689 87.2121 204.691 88.2181C203.694 89.224 202.34 89.7947 200.925 89.8058L200.869 89.7401ZM205.612 89.4067C205.552 89.4096 205.492 89.399 205.437 89.3757C205.381 89.3524 205.332 89.3169 205.292 89.2719C205.252 89.2268 205.222 89.1734 205.206 89.1155C205.189 89.0576 205.185 88.9967 205.195 88.9372C205.196 88.8846 205.208 88.8327 205.23 88.7848C205.252 88.7369 205.284 88.6941 205.323 88.6589C205.362 88.6237 205.408 88.5969 205.458 88.5802C205.507 88.5634 205.56 88.5571 205.612 88.5616C205.716 88.5601 205.816 88.598 205.893 88.6678C205.969 88.7375 206.017 88.8339 206.025 88.9372C206.032 88.9957 206.026 89.055 206.008 89.1111C205.99 89.1673 205.961 89.2192 205.922 89.2634C205.884 89.3076 205.836 89.3432 205.783 89.3678C205.729 89.3925 205.671 89.4058 205.612 89.4067ZM205.612 80.0778C205.502 80.0765 205.397 80.0321 205.319 79.954C205.241 79.8759 205.197 79.7703 205.195 79.6599C205.193 79.6045 205.202 79.5492 205.222 79.4975C205.242 79.4459 205.272 79.399 205.312 79.36C205.351 79.321 205.398 79.2908 205.45 79.2713C205.502 79.2518 205.557 79.2434 205.612 79.2467C205.722 79.2467 205.827 79.2903 205.904 79.3678C205.982 79.4453 206.025 79.5503 206.025 79.6599C206.014 79.7662 205.967 79.8655 205.892 79.9415C205.817 80.0174 205.718 80.0655 205.612 80.0778ZM196.172 80.0778C196.061 80.0778 195.955 80.0338 195.877 79.9554C195.799 79.877 195.755 79.7707 195.755 79.6599C195.751 79.6043 195.76 79.5487 195.779 79.4966C195.799 79.4446 195.83 79.3974 195.869 79.3583C195.909 79.3191 195.956 79.2889 196.009 79.2697C196.061 79.2504 196.116 79.2426 196.172 79.2467C196.227 79.2433 196.282 79.2517 196.334 79.2712C196.385 79.2908 196.432 79.3211 196.471 79.3602C196.51 79.3992 196.54 79.4461 196.56 79.4978C196.579 79.5495 196.588 79.6047 196.584 79.6599C196.584 79.7699 196.541 79.8755 196.464 79.9537C196.387 80.032 196.282 80.0765 196.172 80.0778ZM196.172 89.4067C196.112 89.4096 196.052 89.399 195.996 89.3757C195.941 89.3524 195.891 89.3169 195.851 89.2719C195.811 89.2268 195.782 89.1734 195.765 89.1155C195.748 89.0576 195.745 88.9967 195.755 88.9372C195.755 88.8843 195.766 88.8322 195.788 88.784C195.81 88.7357 195.841 88.6926 195.881 88.6572C195.92 88.6219 195.966 88.5951 196.016 88.5787C196.066 88.5622 196.119 88.5564 196.172 88.5616C196.224 88.5571 196.277 88.5634 196.326 88.5802C196.376 88.597 196.421 88.6239 196.46 88.6591C196.499 88.6944 196.53 88.7373 196.551 88.7852C196.573 88.833 196.584 88.8848 196.584 88.9372C196.594 88.9963 196.591 89.0568 196.574 89.1143C196.558 89.1718 196.529 89.225 196.489 89.27C196.45 89.3149 196.401 89.3505 196.346 89.3742C196.291 89.3978 196.232 89.4089 196.172 89.4067ZM206.648 78.5331V90.2002H195.047V78.5331H206.648ZM206.691 77.289H205.903V78.12H206.719L206.691 77.289ZM195.755 77.289H195V78.12H195.792L195.755 77.289ZM196.753 77.289H195.961V78.12H196.753V77.289ZM197.752 77.289H196.959V78.12H197.812L197.752 77.289ZM198.689 77.289H197.939V78.12H198.689V77.289ZM199.688 77.289H198.895V78.12H199.688V77.289ZM200.686 77.289H199.894V78.12H200.686V77.289ZM201.68 77.289H200.892V78.12H201.68V77.289ZM202.683 77.289H201.891V78.12H202.683V77.289ZM203.677 77.289H202.969V78.12H203.756L203.677 77.289ZM204.675 77.289H203.888V78.12H204.675V77.289ZM205.673 77.289H204.886V78.12H205.673V77.289ZM194.531 91.4725H194.695V77.3547H194.531V91.4725ZM193.697 91.4725H193.908V77.3547H193.697V91.4725ZM194.114 91.4725H194.32V77.3547H194.114V91.4725ZM207.047 91.4725H207.295V77.3547H207.047V91.4725ZM207.881 91.4725H208.087V77.3547H207.881V91.4725ZM207.464 91.4725H207.67V77.3547H207.464V91.4725Z" fill="#DDE3EB"/>
<path fill-rule="evenodd" clip-rule="evenodd" d="M361.608 90.2236V89.6602L359.902 88.8245V91.6978L361.608 90.2236ZM324.056 74.7301H336.488V78.3547H324.056V74.7301ZM336.488 78.9556V84.4957H324.056V78.9556H336.488ZM336.488 85.369V95.2942H324.056V85.3409L336.488 85.369ZM327.216 75.871H329.334V76.3405H327.216V75.871ZM334.495 80.7397V83.2798H332.494V80.7397C332.526 80.5004 332.648 80.2821 332.833 80.1282C333.019 79.9742 333.256 79.8959 333.497 79.9087C333.617 79.8958 333.739 79.9072 333.855 79.9423C333.971 79.9773 334.078 80.0353 334.172 80.1128C334.265 80.1903 334.341 80.2857 334.397 80.3934C334.453 80.5011 334.486 80.6189 334.495 80.7397ZM331.331 80.7397V83.2798H329.334V80.7397C329.344 80.6189 329.377 80.5011 329.433 80.3934C329.488 80.2857 329.565 80.1903 329.658 80.1128C329.751 80.0353 329.859 79.9773 329.975 79.9423C330.091 79.9072 330.212 79.8958 330.333 79.9087C330.574 79.8914 330.813 79.9683 330.999 80.1231C331.185 80.278 331.304 80.499 331.331 80.7397ZM328.125 80.7397V83.2798H326.133V80.7397C326.142 80.6189 326.176 80.5011 326.231 80.3934C326.287 80.2857 326.364 80.1903 326.457 80.1128C326.55 80.0353 326.657 79.9773 326.773 79.9423C326.889 79.9072 327.011 79.8958 327.131 79.9087C327.372 79.8927 327.609 79.9701 327.794 80.1248C327.979 80.2796 328.098 80.4998 328.125 80.7397ZM331.247 88.1532H333.366V88.571H331.252L331.247 88.1532ZM328.622 88.2376H330.75V88.6555H328.627L328.622 88.2376ZM330.122 88.7776H332.241V89.2471H330.127L330.122 88.7776ZM331.369 89.5711H333.492V90.0406H331.373L331.369 89.5711ZM328.875 89.5711H330.994V90.0406H328.88L328.875 89.5711ZM327.253 93.7965H329.33V94.266H327.258L327.253 93.7965ZM326.213 93.2566H328.331V93.7261H326.217L326.213 93.2566ZM325.172 92.6697H327.295V93.0876H325.177L325.172 92.6697ZM333.239 92.5477H335.363V93.0172H333.244L333.239 92.5477ZM332.034 75.3405H334.153V75.81H332.039L332.034 75.3405ZM328.706 76.8852H330.83V77.3547H328.711L328.706 76.8852ZM307.786 107.126H328.833V123.619H307.786V107.126ZM328.833 124.328V141.991H307.786V124.328H328.833ZM323.259 137.366H326.836V138.117H323.264L323.259 137.366ZM319.889 129.826H323.466V130.577H319.894L319.889 129.826ZM315.525 129.995H319.106V130.746H315.53L315.525 129.995ZM318.019 130.934H321.595V131.68H318.023L318.019 130.934ZM320.1 132.267H323.677V133.014H320.105L320.1 132.267ZM315.881 132.267H319.439V133.014H315.905L315.881 132.267ZM313.069 139.474H316.65V140.221H313.073L313.069 139.474ZM311.367 138.535H314.944V139.282H311.372L311.367 138.535ZM309.661 137.53H313.238V138.324H309.661V137.53ZM314.569 117.342V121.628H311.203V117.361C311.239 116.942 311.438 116.553 311.757 116.28C312.077 116.007 312.49 115.871 312.909 115.901C313.322 115.878 313.727 116.019 314.038 116.292C314.349 116.564 314.541 116.948 314.573 117.361L314.569 117.342ZM325.463 117.342V121.628H322.102V117.361C322.113 117.155 322.166 116.953 322.257 116.768C322.347 116.583 322.473 116.417 322.628 116.281C322.783 116.145 322.963 116.042 323.159 115.976C323.354 115.911 323.56 115.885 323.766 115.901C324.182 115.878 324.592 116.017 324.909 116.289C325.226 116.561 325.426 116.945 325.467 117.361L325.463 117.342ZM320.016 117.342V121.628H316.65V117.361C316.682 116.948 316.875 116.564 317.185 116.292C317.496 116.019 317.901 115.878 318.314 115.901C318.733 115.871 319.147 116.007 319.466 116.28C319.785 116.553 319.984 116.942 320.02 117.361L320.016 117.342ZM313.031 109.093H316.608V109.849H313.031V109.093ZM321.267 108.215H324.844V108.966H321.267V108.215ZM315.567 110.788H319.148V111.576H315.567V110.788ZM307.791 112.788H328.838V113.534H307.791V112.788ZM330.333 66.1336L326.175 69.6314H334.744L330.333 66.1336ZM333.909 69.7582V74.4203H327.047V69.7582H333.909ZM329.691 71.547H331.097V70.1713H329.691V71.547ZM366.038 86.6273L360.173 91.5852H372.319L366.038 86.6273ZM370.988 91.9185V98.5385H374.691V127.323H357.281V98.5385H361.5V91.9185H370.988ZM365.166 94.1674H367.12V92.2096H365.166V94.1674ZM361.631 100.163H364.584V100.75H361.631V100.163ZM371.92 107.032V110.529H369.136V107.032C369.144 106.861 369.187 106.694 369.261 106.54C369.335 106.386 369.439 106.248 369.567 106.135C369.695 106.022 369.844 105.936 370.006 105.882C370.168 105.828 370.339 105.807 370.509 105.82C370.854 105.802 371.193 105.917 371.455 106.143C371.717 106.369 371.882 106.687 371.916 107.032H371.92ZM367.43 107.032V110.529H364.645V107.032C364.669 106.69 364.826 106.372 365.082 106.146C365.338 105.919 365.673 105.802 366.014 105.82C366.359 105.803 366.697 105.919 366.959 106.145C367.221 106.37 367.386 106.688 367.42 107.032H367.43ZM362.939 107.032V110.529H360.127V107.032C360.127 106.658 360.275 106.3 360.538 106.036C360.802 105.772 361.16 105.623 361.533 105.623C361.906 105.623 362.263 105.772 362.527 106.036C362.791 106.3 362.939 106.658 362.939 107.032ZM367.308 117.318H370.261V117.943H367.308V117.318ZM363.689 117.441H366.642V118.07H363.689V117.441ZM365.766 118.234H368.761V118.901H365.766V118.234ZM367.514 119.361H370.467V119.98H367.5L367.514 119.361ZM363.98 119.361H366.975V119.98H363.98V119.361ZM361.692 125.314H364.645V125.938H361.692V125.314ZM360.286 124.525H363.239V125.15H360.286V124.525ZM358.88 123.732H361.833V124.356H358.88V123.732ZM370.153 123.563H373.106V124.15H370.153V123.563ZM368.438 99.4728H371.391V100.055H368.438V99.4728ZM363.778 101.595H366.731V102.219H363.75L363.778 101.595ZM357.291 103.219H374.719V104.05H357.281L357.291 103.219ZM357.291 112.215H374.719V113.966H357.281L357.291 112.215ZM318.384 92.7214L311.25 98.6793H325.969L318.384 92.7214ZM324.375 99.0127V106.562H312.825V99.022L324.375 99.0127ZM317.306 101.83H319.688V99.4822H317.316L317.306 101.83ZM329.367 118.732L329.948 118.441V122.901L330.886 122.483V118.027L332.883 117.088V121.549L333.797 121.079V116.624L335.794 115.685V120.14L336.731 119.671V115.21L338.728 114.271V118.727L339.666 118.257V113.802L341.663 112.863V117.318L342.6 116.901V112.403L344.597 111.464V115.919L345.534 115.501V111.046L347.527 110.046V114.501L348.464 114.088V109.633L350.419 108.694V113.149L351.356 112.68V108.224L353.353 107.285V111.741L354.291 111.271V106.811L356.288 105.872V110.332L356.705 110.163V125.159L329.339 138.305L329.367 118.732ZM359.892 91.6556V92.5946L359.105 92.219V88.3879L357.356 87.5522V91.4256L356.569 91.0077V87.1766L354.872 86.3737V90.2471L354.038 89.8292V85.9981L352.373 85.1671V89.0405L351.544 88.6227V84.7915L349.838 83.998V87.7822L349.05 87.4113V83.5567L347.302 82.721V86.5521L346.509 86.1765V82.3455L344.808 81.5144V85.3456L344.016 84.9699V81.1388L342.272 80.3031V84.1389L341.48 83.7633V79.9275L339.773 79.0965V82.9276L338.944 82.5567V78.7209L337.28 77.8899V81.721L337.069 81.6365V94.5524L356.756 104.008V98.0079H361.167V91.6791L359.892 91.6556Z" fill="#DDE3EB"/>
<path fill-rule="evenodd" clip-rule="evenodd" d="M134.578 73.8945L133.912 80.1435L111.83 77.7256L112.495 71.4813L134.578 73.8945ZM116.986 130.92C128.508 130.92 138.445 135.502 142.481 142H91.4062C95.5219 135.502 105.422 130.92 116.981 130.92H116.986ZM107.17 114.074L130.608 116.656L130.486 118.065L106.987 115.478L107.17 114.074ZM116.236 61.6312L133.111 63.4622L133.233 62.2134L116.358 60.3823L116.236 61.6312ZM112.017 69.3779L135.516 71.9179L135.352 73.378L111.914 70.7958L112.017 69.3779ZM111.08 78.2984L134.517 80.8806L134.395 82.3361L110.897 79.7538L111.08 78.2984ZM110.142 87.2517L133.58 89.834L133.416 91.2425L109.978 88.7025L110.142 87.2517ZM109.144 96.1722L132.642 98.7544L132.436 100.21L108.998 97.6276L109.144 96.1722ZM108.206 105.126L131.644 107.708L131.48 109.168L108.042 106.586L108.206 105.126ZM130.955 71.0118L131.719 63.8378L117.539 62.2978L116.747 69.4577L130.955 71.0118ZM121.308 65.8473L121.059 68.3872L118.603 68.1384L118.856 65.5984C118.885 65.2624 119.045 64.9512 119.301 64.7324C119.557 64.5135 119.889 64.4047 120.225 64.4294C120.553 64.4761 120.85 64.6496 121.053 64.9128C121.255 65.176 121.347 65.508 121.308 65.8379V65.8473ZM129.745 66.7863L129.455 69.3262L127.003 69.0351L127.294 66.4952C127.31 66.3311 127.358 66.1718 127.435 66.0263C127.512 65.8808 127.618 65.7521 127.745 65.6474C127.872 65.5428 128.018 65.4642 128.176 65.4163C128.333 65.3685 128.499 65.3522 128.663 65.3684C128.828 65.3855 128.988 65.4361 129.133 65.5171C129.278 65.5981 129.405 65.7079 129.506 65.8396C129.607 65.9714 129.681 66.1225 129.722 66.2836C129.763 66.4447 129.771 66.6126 129.745 66.7769V66.7863ZM125.527 66.3168L125.236 68.8567L122.784 68.5656L123.075 66.0257C123.081 65.8581 123.122 65.6936 123.196 65.5433C123.271 65.3931 123.376 65.2604 123.506 65.1541C123.635 65.0479 123.786 64.9706 123.948 64.9274C124.109 64.8842 124.279 64.8761 124.444 64.9036C124.608 64.9238 124.766 64.9764 124.909 65.0584C125.053 65.1404 125.178 65.2501 125.279 65.3811C125.38 65.5121 125.454 65.6619 125.496 65.8217C125.539 65.9815 125.549 66.1482 125.527 66.3121V66.3168ZM114.797 72.9836L114.328 77.1058L112.87 76.9415L113.339 72.8146C113.374 72.6387 113.477 72.4836 113.625 72.3827C113.773 72.2817 113.955 72.2429 114.131 72.2747C114.222 72.2745 114.312 72.2931 114.396 72.3292C114.48 72.3653 114.555 72.4182 114.617 72.4847C114.68 72.5511 114.728 72.6297 114.759 72.7155C114.79 72.8014 114.803 72.8926 114.797 72.9836ZM129.061 111.098L128.564 115.22L127.158 115.055L127.627 110.929C127.661 110.753 127.762 110.598 127.91 110.497C128.057 110.396 128.238 110.357 128.414 110.389C128.588 110.416 128.748 110.501 128.868 110.629C128.989 110.757 129.063 110.922 129.08 111.098H129.061ZM127.022 110.849L126.553 115.013L125.095 114.844L125.564 110.722C125.598 110.546 125.7 110.391 125.847 110.29C125.995 110.189 126.176 110.15 126.352 110.182C126.527 110.186 126.694 110.257 126.818 110.381C126.942 110.506 127.014 110.673 127.017 110.849H127.022ZM124.988 110.68L124.519 114.764L123.113 114.638L123.53 110.473C123.578 110.298 123.692 110.149 123.847 110.055C124.002 109.962 124.187 109.932 124.364 109.971C124.452 109.976 124.538 109.998 124.617 110.036C124.696 110.074 124.766 110.128 124.824 110.194C124.882 110.26 124.927 110.337 124.955 110.421C124.983 110.504 124.994 110.592 124.988 110.68ZM122.991 110.431L122.522 114.553L121.069 114.389L121.537 110.267C121.58 109.929 121.912 109.722 122.33 109.722C122.747 109.806 123.038 110.098 122.995 110.431H122.991ZM120.952 110.182L120.483 114.346L119.077 114.177L119.489 110.055C119.529 109.882 119.633 109.731 119.78 109.631C119.927 109.531 120.106 109.49 120.281 109.515C120.457 109.518 120.625 109.589 120.749 109.713C120.874 109.838 120.944 110.006 120.947 110.182H120.952ZM118.955 110.013L118.486 114.098L117.028 113.971L117.445 109.806C117.493 109.632 117.605 109.483 117.76 109.389C117.914 109.296 118.099 109.265 118.275 109.304C118.366 109.304 118.456 109.322 118.54 109.359C118.623 109.395 118.699 109.448 118.761 109.514C118.824 109.581 118.872 109.659 118.903 109.745C118.933 109.831 118.946 109.922 118.941 110.013H118.955ZM116.916 109.764L116.447 113.886L114.989 113.722L115.458 109.637C115.496 109.461 115.597 109.305 115.742 109.197C115.887 109.09 116.066 109.04 116.245 109.055C116.662 109.14 116.953 109.431 116.911 109.764H116.916ZM114.881 109.558L114.464 113.68L112.969 113.511L113.437 109.389C113.482 109.209 113.593 109.054 113.748 108.953C113.903 108.853 114.09 108.816 114.272 108.849C114.447 108.864 114.609 108.946 114.725 109.078C114.841 109.21 114.902 109.382 114.895 109.558H114.881ZM112.884 109.346L112.416 113.473L110.962 113.304L111.431 109.182C111.472 109.009 111.576 108.857 111.722 108.757C111.869 108.657 112.048 108.616 112.223 108.642C112.313 108.645 112.402 108.665 112.484 108.701C112.566 108.738 112.64 108.791 112.702 108.856C112.764 108.921 112.812 108.998 112.844 109.083C112.876 109.167 112.892 109.256 112.889 109.346H112.884ZM110.845 109.098L110.428 113.22L108.933 113.055L109.402 108.971C109.433 108.791 109.532 108.63 109.679 108.521C109.825 108.413 110.008 108.365 110.189 108.389C110.606 108.473 110.897 108.764 110.855 109.098H110.845ZM130.017 102.055L129.6 106.177L128.105 106.013L128.573 101.886C128.615 101.714 128.718 101.564 128.864 101.464C129.009 101.365 129.186 101.323 129.361 101.346C129.778 101.426 130.069 101.722 130.027 102.055H130.017ZM128.02 101.844L127.523 105.971L126.117 105.802L126.586 101.679C126.621 101.503 126.724 101.348 126.872 101.247C127.02 101.147 127.202 101.108 127.378 101.139C127.554 101.159 127.717 101.241 127.838 101.37C127.959 101.499 128.03 101.667 128.039 101.844H128.02ZM125.986 101.637L125.517 105.759L124.059 105.595L124.528 101.426C124.574 101.259 124.681 101.115 124.828 101.023C124.974 100.931 125.15 100.897 125.32 100.928C125.411 100.928 125.502 100.947 125.585 100.983C125.669 101.019 125.744 101.072 125.807 101.138C125.869 101.205 125.917 101.283 125.948 101.369C125.979 101.455 125.992 101.546 125.986 101.637ZM123.989 101.388L123.487 105.511L122.081 105.388L122.494 101.262C122.541 101.081 122.651 100.923 122.804 100.816C122.957 100.71 123.143 100.661 123.328 100.679C123.502 100.707 123.662 100.791 123.782 100.92C123.903 101.048 123.977 101.213 123.994 101.388H123.989ZM121.95 101.177L121.481 105.304L120.028 105.135L120.497 101.013C120.53 100.836 120.631 100.68 120.779 100.578C120.926 100.476 121.108 100.437 121.284 100.468C121.466 100.474 121.638 100.552 121.763 100.685C121.888 100.818 121.955 100.995 121.95 101.177ZM119.911 100.97L119.442 105.093L118.036 104.928L118.453 100.764C118.502 100.599 118.609 100.458 118.753 100.366C118.898 100.273 119.071 100.236 119.241 100.262C119.332 100.261 119.422 100.28 119.505 100.316C119.589 100.352 119.664 100.405 119.727 100.472C119.789 100.538 119.837 100.617 119.868 100.702C119.899 100.788 119.912 100.879 119.906 100.97H119.911ZM117.914 100.722L117.445 104.844L115.987 104.717L116.456 100.595C116.456 100.219 116.831 100.013 117.248 100.013C117.661 100.097 117.952 100.388 117.909 100.722H117.914ZM115.88 100.51L115.411 104.637L114.005 104.468L114.422 100.346C114.44 100.26 114.474 100.179 114.524 100.107C114.574 100.035 114.638 99.9733 114.711 99.9264C114.785 99.8795 114.868 99.848 114.954 99.8338C115.041 99.8196 115.129 99.8229 115.214 99.8437C115.303 99.8389 115.391 99.8529 115.474 99.8847C115.557 99.9166 115.632 99.9655 115.695 100.028C115.758 100.091 115.807 100.167 115.839 100.25C115.87 100.333 115.884 100.422 115.88 100.51ZM113.841 100.304L113.423 104.426L111.928 104.262L112.397 100.097C112.452 99.9266 112.567 99.7818 112.72 99.6894C112.873 99.5971 113.055 99.5635 113.231 99.5949C113.32 99.5948 113.409 99.6138 113.49 99.6506C113.571 99.6874 113.644 99.741 113.703 99.8081C113.762 99.8752 113.806 99.9541 113.832 100.04C113.858 100.125 113.866 100.215 113.855 100.304H113.841ZM111.844 100.055L111.375 104.177L109.917 104.05L110.386 99.9282C110.422 99.7508 110.523 99.5932 110.668 99.4857C110.814 99.3782 110.994 99.3284 111.173 99.346C111.548 99.4305 111.881 99.7216 111.839 100.055H111.844ZM131.016 93.0125L130.547 97.1394L129.089 97.0126L129.558 92.8482C129.576 92.7628 129.61 92.6819 129.66 92.6101C129.709 92.5384 129.772 92.4774 129.846 92.4305C129.919 92.3837 130.001 92.3521 130.087 92.3375C130.173 92.323 130.261 92.3258 130.345 92.3458C130.72 92.388 131.053 92.6791 131.011 93.0125H131.016ZM128.977 92.8059L128.564 96.9281L127.064 96.7638L127.533 92.6369C127.572 92.4641 127.675 92.3126 127.821 92.2126C127.967 92.1125 128.145 92.0712 128.32 92.0969C128.502 92.1031 128.674 92.1811 128.799 92.3139C128.924 92.4467 128.991 92.6236 128.986 92.8059H128.977ZM126.984 92.5993L126.516 96.7215L125.058 96.5525L125.527 92.4303C125.561 92.2547 125.662 92.0997 125.81 91.9986C125.957 91.8976 126.138 91.8587 126.314 91.8904C126.494 91.9043 126.662 91.9845 126.786 92.1155C126.909 92.2465 126.98 92.4189 126.984 92.5993ZM124.945 92.3458L124.477 96.4727L123.023 96.3459L123.492 92.2237C123.506 92.1347 123.538 92.0495 123.586 91.9732C123.634 91.897 123.697 91.8314 123.771 91.7804C123.845 91.7295 123.929 91.6942 124.017 91.6768C124.106 91.6593 124.196 91.6601 124.284 91.6791C124.702 91.7214 124.992 92.0124 124.95 92.3458H124.945ZM122.948 92.1392L122.447 96.2614L121.041 96.0971L121.458 91.9749C121.506 91.7985 121.617 91.6459 121.77 91.5456C121.923 91.4453 122.107 91.4043 122.288 91.4303C122.464 91.451 122.628 91.5335 122.749 91.6632C122.871 91.7929 122.943 91.9615 122.953 92.1392H122.948ZM120.909 91.9326L120.441 96.0548L118.983 95.8858L119.452 91.7636C119.486 91.588 119.587 91.433 119.735 91.3319C119.882 91.2309 120.063 91.192 120.239 91.2237C120.421 91.2298 120.593 91.3078 120.718 91.4406C120.843 91.5735 120.91 91.7503 120.905 91.9326H120.909ZM118.875 91.7214L118.406 95.806L117 95.6792L117.417 91.557C117.436 91.4665 117.472 91.3805 117.523 91.3041C117.575 91.2276 117.642 91.1622 117.719 91.1116C117.796 91.0609 117.882 91.0261 117.973 91.0091C118.064 90.9921 118.157 90.9932 118.247 91.0124C118.335 91.0166 118.421 91.0383 118.501 91.0764C118.58 91.1145 118.652 91.1682 118.71 91.2343C118.769 91.3003 118.813 91.3775 118.842 91.4611C118.87 91.5448 118.881 91.6333 118.875 91.7214ZM116.878 91.4725L116.409 95.5947L114.956 95.4304L115.425 91.3082C115.437 91.2196 115.469 91.1349 115.517 91.0597C115.565 90.9845 115.629 90.9208 115.705 90.873C115.78 90.8251 115.865 90.7944 115.954 90.7828C116.042 90.7712 116.132 90.779 116.217 90.8058C116.305 90.8052 116.392 90.822 116.473 90.8553C116.554 90.8886 116.627 90.9377 116.689 90.9997C116.751 91.0617 116.8 91.1355 116.833 91.2167C116.867 91.2978 116.883 91.3848 116.883 91.4725H116.878ZM114.839 91.266L114.37 95.3881L112.964 95.2238L113.377 91.0969C113.417 90.9239 113.521 90.7723 113.668 90.6723C113.814 90.5723 113.993 90.5311 114.169 90.557C114.351 90.5631 114.523 90.6411 114.648 90.7739C114.772 90.9068 114.839 91.0837 114.834 91.266H114.839ZM112.842 91.0546L112.373 95.1393L110.878 95.0125L111.347 90.8903C111.365 90.7996 111.4 90.7134 111.452 90.6368C111.504 90.5603 111.57 90.4949 111.648 90.4445C111.725 90.3941 111.812 90.3599 111.903 90.3437C111.993 90.3275 112.087 90.3298 112.177 90.3504C112.268 90.3489 112.358 90.3663 112.442 90.4017C112.526 90.437 112.602 90.4895 112.664 90.5557C112.727 90.622 112.775 90.7005 112.806 90.7864C112.836 90.8723 112.849 90.9637 112.842 91.0546ZM131.972 84.0122L131.559 88.0921L130.102 87.9701L130.57 83.8056C130.57 83.4723 130.941 83.261 131.316 83.3032C131.691 83.3455 132.066 83.6366 131.981 84.0122H131.972ZM129.975 83.7633L129.506 87.8855L128.048 87.7212L128.517 83.6366C128.548 83.4566 128.648 83.2956 128.794 83.1872C128.941 83.0787 129.124 83.0312 129.305 83.0544C129.68 83.1389 130.012 83.43 129.97 83.7633H129.975ZM127.936 83.5145L127.523 87.679L126.028 87.51L126.525 83.3877C126.535 83.3026 126.564 83.2207 126.609 83.1476C126.654 83.0745 126.714 83.012 126.785 82.9643C126.856 82.9166 126.937 82.8849 127.021 82.8713C127.106 82.8576 127.192 82.8624 127.275 82.8854C127.361 82.8795 127.446 82.8915 127.527 82.9206C127.608 82.9497 127.681 82.9953 127.744 83.0544C127.806 83.1136 127.855 83.185 127.888 83.2642C127.921 83.3434 127.937 83.4287 127.936 83.5145ZM125.944 83.3455L125.475 87.4677L124.022 87.3034L124.491 83.1389C124.535 82.9705 124.641 82.8252 124.788 82.732C124.935 82.6388 125.112 82.6047 125.283 82.6366C125.462 82.6506 125.629 82.731 125.753 82.8621C125.876 82.9932 125.945 83.1656 125.948 83.3455H125.944ZM123.905 83.0967L123.436 87.2189L121.983 87.0545L122.452 82.9699C122.484 82.7896 122.584 82.6285 122.731 82.5202C122.879 82.4118 123.062 82.3644 123.244 82.3877C123.661 82.4722 123.952 82.7633 123.909 83.0967H123.905ZM121.908 82.8854L121.411 87.0123L120.005 86.8433L120.422 82.721C120.467 82.5456 120.58 82.3951 120.735 82.302C120.89 82.2089 121.076 82.1806 121.252 82.2234C121.426 82.2281 121.592 82.2992 121.715 82.4222C121.839 82.5452 121.911 82.7109 121.917 82.8854H121.908ZM119.869 82.6788L119.4 86.8057L117.942 86.6367L118.411 82.5145C118.446 82.3392 118.548 82.1845 118.695 82.0829C118.842 81.9813 119.022 81.9408 119.198 81.9699C119.29 81.9697 119.38 81.9882 119.463 82.0243C119.547 82.0604 119.622 82.1134 119.685 82.1798C119.747 82.2463 119.795 82.3249 119.826 82.4107C119.857 82.4965 119.87 82.5878 119.864 82.6788H119.869ZM117.834 82.43L117.366 86.5522L115.959 86.3879L116.377 82.3032C116.424 82.123 116.535 81.9657 116.687 81.8591C116.84 81.7526 117.026 81.7036 117.211 81.721C117.383 81.7437 117.541 81.828 117.655 81.9584C117.77 82.0887 117.834 82.2563 117.834 82.43ZM115.837 82.2234L115.369 86.3456L113.916 86.1765L114.384 82.0544C114.399 81.9672 114.433 81.8842 114.482 81.8106C114.531 81.7371 114.595 81.6747 114.669 81.6274C114.744 81.58 114.828 81.5489 114.915 81.5359C115.002 81.523 115.091 81.5284 115.177 81.552C115.266 81.5472 115.355 81.5613 115.438 81.5934C115.521 81.6255 115.597 81.6749 115.66 81.7383C115.722 81.8017 115.771 81.8777 115.803 81.9613C115.834 82.0449 115.848 82.1342 115.842 82.2234H115.837ZM113.798 82.0121L113.33 86.1343L111.923 85.97L112.336 81.8478C112.376 81.6744 112.48 81.5224 112.627 81.4216C112.773 81.3208 112.952 81.2786 113.128 81.3031C113.219 81.303 113.309 81.3215 113.393 81.3576C113.477 81.3938 113.552 81.4467 113.614 81.5131C113.677 81.5796 113.725 81.6582 113.756 81.744C113.787 81.8298 113.8 81.9211 113.794 82.0121H113.798ZM132.97 74.9696L132.502 79.0918L131.048 78.9275L131.517 74.7584C131.572 74.589 131.686 74.4453 131.839 74.3538C131.991 74.2624 132.172 74.2293 132.347 74.2607C132.435 74.2648 132.521 74.2866 132.6 74.3247C132.68 74.3629 132.75 74.4167 132.809 74.4828C132.867 74.5489 132.911 74.6261 132.939 74.7098C132.967 74.7934 132.977 74.8817 132.97 74.9696ZM130.931 74.7161L130.519 78.843L129.061 78.7162L129.53 74.594C129.53 74.2184 129.905 74.0072 130.275 74.0072C130.692 74.0917 131.025 74.3875 130.941 74.7161H130.931ZM128.939 74.5095L128.47 78.6317L127.012 78.4674L127.481 74.3452C127.496 74.2577 127.528 74.1743 127.577 74.1004C127.626 74.0264 127.69 73.9636 127.765 73.9162C127.84 73.8688 127.924 73.8377 128.011 73.8251C128.099 73.8124 128.188 73.8185 128.273 73.8429C128.362 73.8388 128.45 73.8533 128.533 73.8854C128.615 73.9175 128.69 73.9664 128.753 74.0292C128.816 74.0919 128.864 74.167 128.897 74.2497C128.929 74.3324 128.943 74.4209 128.939 74.5095ZM126.9 74.303L126.483 78.4251L124.988 78.2608L125.484 74.1339C125.496 74.0482 125.525 73.9658 125.57 73.8917C125.614 73.8176 125.674 73.7534 125.744 73.7029C125.814 73.6524 125.894 73.6167 125.978 73.598C126.062 73.5793 126.149 73.5779 126.234 73.594C126.652 73.6363 126.984 73.9274 126.9 74.303ZM124.903 74.0494L124.434 78.1763L122.981 78.0495L123.45 73.9273C123.482 73.747 123.582 73.586 123.73 73.4776C123.877 73.3692 124.061 73.3218 124.242 73.3452C124.416 73.3715 124.575 73.4551 124.696 73.5827C124.816 73.7103 124.891 73.8745 124.908 74.0494H124.903ZM122.864 73.8429L122.395 77.965L120.937 77.8007L121.406 73.6738C121.421 73.5872 121.454 73.5049 121.503 73.4319C121.552 73.3589 121.616 73.297 121.69 73.2501C121.764 73.2032 121.847 73.1724 121.934 73.1596C122.021 73.1469 122.109 73.1525 122.194 73.1761C122.282 73.1714 122.371 73.1854 122.454 73.2172C122.537 73.2491 122.612 73.298 122.675 73.3609C122.738 73.4237 122.787 73.4992 122.818 73.5822C122.85 73.6652 122.864 73.7541 122.859 73.8429H122.864ZM120.867 73.6362L120.398 77.7585L118.941 77.5941L119.409 73.4672C119.443 73.2917 119.545 73.1366 119.693 73.0356C119.84 72.9345 120.021 72.8956 120.197 72.9273C120.376 72.9413 120.543 73.0217 120.667 73.1528C120.79 73.2839 120.86 73.4563 120.862 73.6362H120.867ZM118.833 73.3874L118.364 77.5096L116.906 77.3875L117.375 73.2606C117.388 73.1714 117.42 73.0859 117.468 73.0095C117.515 72.9331 117.579 72.8675 117.653 72.8168C117.727 72.7661 117.812 72.7313 117.9 72.7148C117.989 72.6982 118.079 72.7003 118.167 72.7207C118.58 72.763 118.875 73.0541 118.833 73.3874ZM116.836 73.1761L116.334 77.3031L114.928 77.134L115.341 73.0118C115.386 72.8352 115.499 72.6834 115.655 72.5894C115.811 72.4955 115.998 72.4667 116.175 72.5094C116.35 72.5142 116.517 72.586 116.64 72.71C116.764 72.834 116.836 73.0008 116.841 73.1761H116.836ZM133.636 82.8384L132.97 89.0452L110.887 86.632L111.553 80.4252L133.636 82.8384ZM132.698 91.7965L131.991 98.0033L109.908 95.5853L110.616 89.3786L132.698 91.7965ZM131.7 100.755L131.034 106.961L108.952 104.543L109.617 98.3366L131.7 100.755ZM130.762 109.675L130.055 115.924L108.023 113.506L108.689 107.262L130.762 109.675ZM129.764 118.633L128.358 131.779C128.025 131.694 127.697 131.615 127.322 131.488L128.4 121.868C128.484 120.929 127.655 120.074 126.487 119.91C125.32 119.746 124.327 120.45 124.242 121.45L123.244 130.699L122.161 130.572L123.159 121.323C123.244 120.384 122.414 119.492 121.284 119.365C120.155 119.239 119.123 119.91 119.039 120.868L117.998 130.258C117.687 130.224 117.374 130.21 117.061 130.216H116.939L117.975 120.718C118.059 119.779 117.23 118.887 116.1 118.76C114.97 118.633 113.939 119.304 113.812 120.258L112.734 130.427L111.609 130.549L112.734 120.135C112.856 119.196 111.984 118.304 110.859 118.178C109.734 118.051 108.698 118.718 108.614 119.718L107.325 131.342C106.908 131.422 106.453 131.549 106.036 131.671L107.7 116.178L129.764 118.633Z" fill="#DDE3EB"/>
<path fill-rule="evenodd" clip-rule="evenodd" d="M277.031 140.54L261.094 140.709L263.217 138.127L264.005 137.188L264.506 136.563L265.294 135.624L265.795 135L266.541 134.126L277.064 121.45L287.672 133.906C287.583 133.986 287.461 134.112 287.377 134.197L294.075 127.948C295.406 129.112 296.733 130.295 298.064 131.403C299.002 129.948 300.562 128.117 302.559 128.323C306.009 128.446 306.511 133.779 306.511 133.779L304.678 133.821L304.72 134.864C305.39 135.54 305.888 136.368 306.173 137.277C306.216 137.319 306.216 137.361 306.258 137.404L306.384 137.568L306.427 137.695C306.5 137.879 306.583 138.059 306.675 138.235L299.316 138.277C301.767 138.277 304.219 138.235 306.675 138.235L306.548 138.028L306.469 137.821L306.427 137.695C306.5 137.879 306.583 138.059 306.675 138.235C306.759 138.488 307.05 139.174 307.092 139.446L310.959 139.61C311.583 139.779 311.897 139.737 312.328 141.775L300.356 141.859C300.394 142.066 294.698 141.775 294.698 141.775L282.553 141.653C282.556 141.289 282.528 140.927 282.469 140.568L277.031 140.54ZM306.267 137.46C306.225 137.418 306.225 137.375 306.183 137.333L306.267 137.46Z" fill="#DDE3EB"/>
<path fill-rule="evenodd" clip-rule="evenodd" d="M300 112.135V113.384H293.653V120.089H296.4L294.488 120.713V142H290.269V120.755L288.314 120.089H291.103V113.384H269.948V120.089H272.733L270.82 120.713V142H266.602V120.755L264.727 120.089H267.469V113.384H261.094V112.135H259.388V111.22H267.455V107.595H265.542V106.187C262.927 105.811 260.222 105.356 257.517 104.811V101.731C256.519 101.562 255.478 101.355 254.438 101.107V98.5807C253.275 98.3742 252.094 98.1112 250.908 97.8765V95.6229C270.526 98.8933 290.549 98.8933 310.167 95.6229V97.8765C309.005 98.1206 307.823 98.3742 306.633 98.5807V101.083C305.634 101.332 304.594 101.553 303.558 101.745V104.787C300.938 105.374 298.233 105.872 295.528 106.248V107.581H293.653V111.206H301.678V112.121L300 112.135ZM271.875 106.886V107.595H269.963V111.22H278.653V107.22C276.408 107.177 274.163 107.05 271.875 106.886ZM291.131 107.595H289.219V106.928C287.011 107.135 284.728 107.22 282.478 107.262V111.22H291.131V107.595Z" fill="#DDE3EB"/>
</g>
<defs>
<clipPath id="clip0_129_383">
<rect width="375" height="142" fill="white"/>
</clipPath>
</defs>
</svg>
