<svg width="40" height="37" viewBox="0 0 40 37" fill="none" xmlns="http://www.w3.org/2000/svg">
<path id="Vector" d="M18.9601 1.998C19.0446 1.79166 19.1887 1.61515 19.3739 1.49092C19.5591 1.36669 19.7771 1.30035 20.0001 1.30035C20.2231 1.30035 20.441 1.36669 20.6262 1.49092C20.8114 1.61515 20.9555 1.79166 21.0401 1.998L25.2901 12.22C25.3696 12.4113 25.5004 12.5769 25.668 12.6986C25.8356 12.8204 26.0336 12.8935 26.2401 12.91L37.2761 13.794C38.2741 13.874 38.6781 15.12 37.9181 15.77L29.5101 22.974C29.353 23.1084 29.2359 23.2834 29.1717 23.4799C29.1075 23.6764 29.0986 23.8868 29.1461 24.088L31.7161 34.858C31.7677 35.0741 31.7542 35.3006 31.6772 35.509C31.6001 35.7174 31.4631 35.8983 31.2833 36.0288C31.1036 36.1594 30.8891 36.2337 30.6671 36.2425C30.4452 36.2512 30.2255 36.194 30.0361 36.078L20.5861 30.308C20.4095 30.2004 20.2068 30.1435 20.0001 30.1435C19.7933 30.1435 19.5906 30.2004 19.4141 30.308L9.96406 36.08C9.77457 36.196 9.55496 36.2532 9.33297 36.2445C9.11098 36.2357 8.89656 36.1614 8.71679 36.0308C8.53703 35.9003 8.39998 35.7194 8.32296 35.511C8.24594 35.3026 8.2324 35.0761 8.28406 34.86L10.8541 24.088C10.9017 23.8868 10.893 23.6764 10.8287 23.4798C10.7645 23.2833 10.6473 23.1082 10.4901 22.974L2.08206 15.77C1.91368 15.6252 1.79188 15.4339 1.73196 15.2201C1.67203 15.0063 1.67667 14.7795 1.74529 14.5683C1.81391 14.3571 1.94343 14.1709 2.11759 14.0331C2.29174 13.8954 2.50274 13.8122 2.72406 13.794L13.7601 12.91C13.9666 12.8935 14.1645 12.8204 14.3321 12.6986C14.4997 12.5769 14.6305 12.4113 14.7101 12.22L18.9601 1.998Z" fill="#0085F4" fill-opacity="0.2" stroke="#0085F4" stroke-width="1.5" stroke-linecap="round" stroke-linejoin="round"/>
</svg>
