<svg width="18" height="18" viewBox="0 0 18 18" fill="none" xmlns="http://www.w3.org/2000/svg">
<path fill-rule="evenodd" clip-rule="evenodd" d="M9 3.75C8.20435 3.75 7.44129 4.06607 6.87868 4.62868C6.31607 5.19129 6 5.95435 6 6.75C6 7.54565 6.31607 8.30871 6.87868 8.87132C7.44129 9.43393 8.20435 9.75 9 9.75C9.79565 9.75 10.5587 9.43393 11.1213 8.87132C11.6839 8.30871 12 7.54565 12 6.75C12 5.95435 11.6839 5.19129 11.1213 4.62868C10.5587 4.06607 9.79565 3.75 9 3.75ZM11.847 10.2352C12.5661 9.6478 13.0858 8.85229 13.335 7.9578C13.5841 7.06332 13.5505 6.11367 13.2386 5.23906C12.9268 4.36446 12.352 3.60773 11.5932 3.07265C10.8343 2.53757 9.92853 2.25034 9 2.25034C8.07147 2.25034 7.16567 2.53757 6.40681 3.07265C5.64795 3.60773 5.0732 4.36446 4.76136 5.23906C4.44952 6.11367 4.41587 7.06332 4.66502 7.9578C4.91417 8.85229 5.43392 9.6478 6.153 10.2352C5.4705 10.4805 4.84725 10.8127 4.308 11.2177C3.07875 12.1387 2.25 13.4677 2.25 15C2.25 15.1989 2.32902 15.3897 2.46967 15.5303C2.61032 15.671 2.80109 15.75 3 15.75C3.19891 15.75 3.38968 15.671 3.53033 15.5303C3.67098 15.3897 3.75 15.1989 3.75 15C3.75 14.046 4.26375 13.1257 5.20725 12.4177C6.1515 11.7097 7.4895 11.25 9 11.25C10.5105 11.25 11.8485 11.7097 12.7927 12.4177C13.7362 13.1257 14.25 14.0475 14.25 15C14.25 15.1989 14.329 15.3897 14.4697 15.5303C14.6103 15.671 14.8011 15.75 15 15.75C15.1989 15.75 15.3897 15.671 15.5303 15.5303C15.671 15.3897 15.75 15.1989 15.75 15C15.75 13.4685 14.9205 12.1387 13.6927 11.2177C13.1297 10.8004 12.5076 10.4693 11.847 10.2352Z" fill="#757575"/>
</svg>
